<?xml version="1.0" encoding="UTF-8" standalone="no"?>
<svg id="svg4251" xmlns:rdf="http://www.w3.org/1999/02/22-rdf-syntax-ns#" xmlns="http://www.w3.org/2000/svg" height="655" viewBox="0 0 280 655" width="280" version="1.1" xmlns:cc="http://creativecommons.org/ns#" xmlns:dc="http://purl.org/dc/elements/1.1/">
<path id="path4261" d="m89.806 654.18c-3.3124-1.3294 16.135-38.745 22.768-43.804 2.893-2.2066 7.3018-9.8817 10.555-18.375 1.5873-4.1438 1.4238-22.968-0.46465-53.5-1.3772-22.266-1.5013-51.338-0.22796-53.398 0.45516-0.73647 0.98422-4.6316 1.1757-8.6559 0.19146-4.0243 0.75966-9.1485 1.2627-11.387 0.5344-2.3784 0.54388-4.2994 0.0228-4.6215-0.49045-0.30312-1.826-2.7228-2.9678-5.3771-1.97-4.56-5.86-9.05-7.86-9.05-0.50317 0-1.436-1.5791-2.073-3.5091-0.63696-1.93-1.6931-4.0675-2.347-4.75-5.2978-5.5295-8.65-13.983-8.65-21.813 0-8.7966-0.73949-9.5798-4.6535-4.9283-5.779 6.868-7.8657 1.8907-5.2404-12.5 0.60201-3.3 1.4127-8.025 1.8016-10.5 0.38885-2.475 1.2437-5.4829 1.8996-6.6843 0.65596-1.2013 1.2034-5.7013 1.2165-10 0.02219-7.2713 0.79508-12.526 2.4174-16.434 0.45674-1.1004 0.06225-1.778-1.2322-2.1165-3.4227-0.89505-4.4736-19.898-1.7291-31.265 0.79682-3.3 1.4731-7.8 1.5028-10 0.17306-12.808 5.081-29.535 10.358-35.303 6.0295-6.59 6.025-32.753-0.008-45.096l-4.105-8.3986-1.6681 5.8986c-6.9614 24.616-15.631 32.42-28.846 25.966-13.886-6.7831-23.668-17.594-34.679-38.326-2.676-5.0387-4.3197-6.8298-8.4299-9.1859-2.8082-1.6097-6.6132-4.4858-8.4554-6.3913-3.3132-3.4269-3.3707-3.4435-5.2865-1.5276-1.0653 1.0653-2.3572 1.6771-2.871 1.3595-0.51379-0.31754-2.2686 0.11271-3.8995 0.9561-2.6785 1.3851-3.1189 1.3799-4.5527-0.0539-2.6657-2.6657-4.6781-7.3896-4.0248-9.4478 0.8737-2.77 2.1855-2.42 3.98 1.05 1.5946 3.0835 3.996 3.9645 4.7706 1.75 0.31783-0.90865 0.99618-0.75432 2.4841 0.56514 3.2657 2.8961 3.4491 0.34517 0.24456-3.4026-1.6048-1.8769-2.9362-3.9269-2.9585-4.5556-0.042267-1.1888-2.9984-2.7326-3.7648-1.9662-0.24084 0.24084 0.048567 1.3468 0.64313 2.4578 1.7699 3.31 1.3009 4.66-0.9191 2.65-2.538-2.3-2.8904-12.52-0.5-14.5 1.2224-1.0145 1.5-0.96121 1.5 0.28776 0 2.9957 15.382 20.663 16.776 19.269 0.3563-0.3563 0.11156-1.5065-0.54385-2.556-1.7872-2.8618 0.295-3.3708 2.158-0.52748 1.9118 2.9178 2.0303 4.2196 0.43233 4.7523-0.66927 0.22309-0.84133 0.93556-0.39885 1.6515 0.42801 0.69254 1.4008 1.0202 2.1618 0.72822 0.77092-0.29583 1.8808 0.39803 2.5063 1.5669 0.82638 1.5441 1.3288 1.7644 1.9034 0.83464 0.42939-0.69476 1.2884-0.94946 1.9088-0.566 0.62046 0.38347 0.86922 1.1161 0.55279 1.6281-0.69798 1.1294 0.58137 1.1933 2.2807 0.11397 2.4193-1.5366-4.6588-18.534-7.2965-17.522-1.5658 0.60087-1.5554 0.88818 0.24048 6.5892 0.85663 2.7194-1.6129 2.0619-2.6668-0.71007-0.51442-1.353-1.8533-3.378-2.9752-4.5-1.12-1.12-2.038-2.91-2.038-3.98 0-1.0675-0.39808-2.187-0.88461-2.4877-0.48654-0.30069-1.1891-2.5772-1.5613-5.059-0.654-4.36-4.554-7.02-4.554-3.1 0 2.3 5.832 14.59 6.927 14.59 0.55574 0 0.75142 0.675 0.43484 1.5-0.99397 2.5902-2.2473 1.6724-5.4393-3.9837-1.7021-3.016-4.4625-6.6345-6.1341-8.0411-1.6714-1.41-2.8701-2.7-2.6636-2.87 1.9212-1.6 9.9006-5.61 11.164-5.61 0.88685 0 1.9853-0.66621 2.441-1.4805 0.94926-1.6962 6.796-0.53202 10.929 2.1763 2.7251 1.7856 8.7157-1.8727 7.6896-4.6958-2.2156-6.0958-1.6648-8.7579 2.2834-11.037 2.1277-1.2284 5.0938-3.9613 6.5914-6.0733s4.1976-4.5341 6-5.3824c1.8024-0.84837 4.4333-2.2787 5.8464-3.1785 2.974-1.89 7.932-1.15 7.932 1.19 0 2.5901 6.5305-0.39707 12.066-5.519 0.89157-0.825 3.0493-2.271 4.795-3.2134s3.4571-2.5174 3.8032-3.5c0.34608-0.9826 1.636-2.9116 2.8664-4.2866 2.384-2.664 3.8731-9.0147 2.0375-8.6893-2.0301 0.35986-6.9401-11.308-7.3929-17.569-0.40152-5.5509-0.66846-6.1007-3.8834-7.9975-5.3648-3.1653-6.8916-10.442-3.8762-18.474 0.77848-2.0736 1.6514-6.4103 1.9398-9.6371 1.915-21.44 26.034-36.117 50.394-30.666 9.79 2.191 20.25 9.836 20.25 14.802 0 0.97103 1.1041 2.4354 2.4535 3.2542 6.2184 3.7731 10.775 12.005 10.143 18.321-1.1718 11.697-0.17072 12.398 8.5548 5.9907 28.945-21.257 37.19-28.304 35.411-30.269-2.0585-2.2746-4.2069-10.016-4.9407-17.802-0.3231-3.4285-1.3412-10.07-2.2625-14.759-2.0932-10.653-1.5776-11.143 4.9471-4.699 2.9 2.8559 5.68 5.192 6.18 5.192 3.1816 0 24.538 13.646 24.1 15.399-0.30262 1.2119 0.41063 2.5951 1.9711 3.8226 1.345 1.0579 2.4535 2.9034 2.4635 4.1009 0.0163 1.9589 2.0728 6.1472 7.4946 15.263 3.94 6.626 18.79 14.414 27.47 14.414 7.7828 0 5.321 7.1937-6.5956 19.274-9.87 10.009-18.55 15.726-23.88 15.726-0.89521 0-2.6106 0.53109-3.8119 1.1802-11.102 5.9984-15.626 3.9775-13.142-5.8712 3.1246-12.393 0.047-28.093-7.7405-39.487l-2.5135-3.6775-4.8939 3.9049c-6.42 5.115-7.7 6.088-15.4 11.684-3.575 2.5971-6.725 4.9572-7 5.2446-0.275 0.28744-1.2204 0.97262-2.1008 1.5226-0.88045 0.55-3.5804 2.4884-6 4.3075s-5.7207 4.2941-7.3358 5.5c-8.0533 6.0127-7.9231 5.788-6.688 11.547 0.61851 2.884 1.1246 6.5857 1.1246 8.2259 0 1.9672 0.59563 3.1665 1.75 3.5238 5.055 1.5645 8.512 3.6816 8.9888 5.5048 0.59811 2.2872 3.9742 3.8908 8.1914 3.8908 1.54 0 3.9442 0.9 5.3426 2s3.0365 2 3.6401 2c6.9116 0 28.985 29.313 27.101 35.991-0.816 2.893-1.4117 13.471-1.6619 29.509-0.33649 21.572-0.61187 25.166-2.0084 26.211-2.0312 1.5194-1.4229 6.0158 1.7176 12.697 2.2323 4.749 1.5605 7.4066-1.5616 6.1778-0.55-0.21646-1.7875-0.70988-2.75-1.0965-2.2692-0.91146-2.335 2.952-0.23719 13.915 0.83186 4.3472 1.2975 8.119 1.0348 8.3817-0.26269 0.2627 0.64385 2.3913 2.0146 4.7302 3.8901 6.638 9.6306 24.547 8.3592 26.079-0.75573 0.91061-0.62132 1.9336 0.47366 3.6047 0.84085 1.2833 2.2241 4.3509 3.0739 6.8169 0.84979 2.466 2.0836 5.5254 2.7419 6.7987 0.95092 1.8394 0.92674 2.4819-0.11768 3.1274-1.6779 1.037-0.66908 9.1393 2.1168 17.001 2.0377 5.7506 3.1098 21.788 2.6776 40.056-0.81888 34.616-0.18503 40.207 4.6978 41.432 3.2604 0.81832 3.2515 4.3198-0.0131 5.1392-4.1281 1.0361-12.23-3.2598-19.006-10.078l-2.9336-2.9518-0.83946 2.9791c-1.3227 4.6939-0.0609 9.2214 3.2528 11.671 3.3541 2.4798 3.6316 3.3338 1.366 4.2032-1.8126 0.69555-12.079-2.0477-12.953-3.461-0.31763-0.51392-1.3384-0.94651-2.2685-0.96131-0.93004-0.0148-2.7962-1.8184-4.1471-4.0081-3.3633-5.4516-5.5797-3.4957-5.4652 4.8227 0.13765 10.001-7.0282 8.3103-14.27-3.3668-1.1266-1.8166-1.1944-1.7909-1.25 0.47427-0.0324 1.3173-1.6748 5.755-3.65 9.8615-2.1357 4.4403-3.9722 10.157-4.5313 14.105-0.51705 3.6511-2.051 9.4151-3.4088 12.809-3.5465 8.865-2.3408 13.741 5.7175 23.123 4.2997 5.0058 13.045 23.696 15.175 32.431 0.3653 1.4982 1.7344 4.3011 3.0423 6.2285 1.308 1.9274 3.621 7.0016 5.14 11.276 7.4359 20.923 15.409 34.24 29.207 48.78 5.8518 6.1667 3.5463 10.1-9.493 16.194-10.788 5.0421-23.186 14.845-23.301 18.423-0.0242 0.75601-3.0617 3.7329-6.75 6.6154l-6.706 5.2408-11 0.0559-11 0.0558-2.0467 4.2033c-1.3854 2.8452-3.6212 5.1726-6.9198 7.2033-2.6802 1.65-9.1842 7.0577-14.453 12.017-11.344 10.677-16.824 13.764-29.29 16.498-5.1094 1.1207-10.987 2.7008-13.06 3.5112-4.0342 1.5768-6.2232 1.737-8.9233 0.6533zm12.042-5.7005c0.49056-0.48231-3.1929-5.4096-4.0726-5.4478-0.719-0.03-3.777 5.26-3.777 6.53 0 0.62548 7.1083-0.35488 7.8483-1.0824zm12.954-3.0082c7.0379-1.6067 10.059-2.9427 9.0151-3.9867-0.34342-0.34342-3.6403 0.30712-7.3264 1.4456-8.7828 2.7127-8.5225 2.765-11.991-2.4102-3.3638-5.0185-3.9979-5.3265-5.4357-2.6399-0.80861 1.5109-0.37385 2.5797 2.2148 5.4451 3.7017 4.0974 4.4535 4.2167 13.524 2.146zm2.4758-5.1936c2.0781-0.88372 3.6156-2.0952 3.4167-2.6921-0.19897-0.59691-0.77427-0.91187-1.2784-0.6999-0.50417 0.21196-2.2667 0.96661-3.9167 1.677s-3.7875 1.5353-4.75 1.8332c-0.9625 0.29789-1.75 1.0361-1.75 1.6404 0 1.2322 2.4885 0.7035 8.2784-1.7586zm12.72-1.53c-0.009-4.6945-16.665-23.681-18.854-21.492-0.97025 0.97025 8.7336 15.509 12.819 19.207 1.1214 1.0148 2.0388 2.4504 2.0388 3.1901 0 0.73975 0.9 1.345 2 1.345 1.4087 0 1.9987-0.66524 1.9957-2.25zm-17.355-0.92726c4.4966-2.2457 5.5286-4.6076 2.9486-6.7488-0.96456-0.80051-1.616-0.83925-2.059-0.12245-1.02 1.65-5.53 1.28-5.53-0.45 0-0.93333 0.94444-1.5 2.5-1.5 3.0194 0 3.2091-1.7856 0.63881-6.0122l-1.8612-3.0605-1.4608 2.2863c-0.80342 1.2575-2.4772 4.4159-3.7195 7.0187l-2.2587 4.7324 2.1488 3.0176c2.564 3.6008 3.0343 3.6465 8.653 0.84039zm23.479-4.5727c7.1317-7.8642 8.7968-11.245 6.4843-13.164-1.1215-0.93079-1.8407-0.41409-3.657 2.6276-1.2435 2.0824-3.5998 5.219-5.2362 6.9703-1.8169 1.9444-2.7413 3.7938-2.3743 4.75 0.85357 2.2244 1.9352 1.9566 4.7833-1.1841zm1.6761-13.021c4.2495-6.0554 0.0414-7.3361-4.6484-1.4146-3.8805 4.8996-5.5689 8.6452-4.8001 10.649 0.64139 1.6714 4.3146-1.9184 9.4485-9.234zm-7.55-0.2c5.1765-6.4919 5.6809-8.234 2.9591-10.22-0.98501-0.71868-2.8643-2.8817-4.1762-4.8067s-2.5413-3.6978-2.7321-3.9397c-0.19076-0.24181-1.1114 0.65819-2.0458 2-0.93445 1.3418-3.4363 4.3304-5.5598 6.6413-4.5431 4.9442-4.375 6.7047 1.1873 12.437 4.723 4.8674 4.8174 4.8482 10.367-2.1121zm-9.25-5.38c0-5.1124 5.6288-7.0857 7.9326-2.7809 1.42 2.64-1.01 5.13-5 5.13-2.41 0-2.93-0.42-2.93-2.35zm6.18-2.15c-0.26321-1.4714-2.4398-1.2174-2.9607 0.3455-0.28754 0.86262 0.19537 1.2215 1.3456 1 0.98673-0.19002 1.7136-0.7955 1.6152-1.3455zm26.619 5.5314c5.4375-3.9389 6.3587-5.8694 5.3576-11.228-1.5428-8.2583-2.2827-8.6021-6.9941-3.2498-4.4454 5.0503-4.7917 6.3402-3.0459 11.348 1.7756 5.0936 0.25181 4.752-2.4642-0.55239-1.3657-2.6672-4.5732-6.8744-7.1279-9.3494s-5.5543-5.9625-6.6658-7.75c-2.2896-3.6822-4.4247-4.1899-5.3507-1.2723-0.73232 2.3073-0.19635 3.0521 8.6545 12.026 3.6639 3.7147 7.3879 8.1586 8.2757 9.8753 2.0206 3.9073 4.13 3.9417 9.3607 0.15263zm-2.4139-6.473c-0.98973-2.5792 0.0873-5.0514 2.3408-5.3733 2.3073-0.32961 4.1894 3.5267 2.8103 5.7581-0.95949 1.5525-4.5095 1.2873-5.1511-0.38475zm-1.34-9.31c1.7541-2.6125 3.811-5.1099 4.5708-5.5497 1.4589-0.84445 1.951-5.7003 0.57773-5.7003-2.3172 0-11.598 12.51-10.808 14.569 0.93626 2.4398 2.3497 1.611 5.6596-3.3186zm37.202 3.8266c1.774-0.1811 0.45337-1.7372-3.2876-3.8736-5.7106-3.2613-3.901-4.7123 2.0905-1.6761 4.7504 2.4072 6.3246 2.2507 3.7055-0.36843-0.98886-0.98886-0.95033-1.4217 0.18921-2.126 6.9233-4.2789-5.9602-3.8635-13.948 0.44963-14.619 7.894-11.606 9.9278 11.25 7.5945zm-44.25-3.94c0-0.47257 1.8-2.9041 4-5.4034 4.7326-5.3765 1.8935-12.686-6.0438-15.56-6.2561-2.2652-10.479 10.759-5.3787 16.59 4.1272 4.718 7.4224 6.6597 7.4224 4.3736zm-5.9332-6.9794c-1.5365-3.7093-0.12705-6.8571 3.475-7.7612 3.0192-0.75777 5.4582 1.0435 5.4582 4.0312 0 5.6926-6.9229 8.5832-8.9332 3.73zm6.745-3.4228c0.24-1.29-0.34-1.74-2.25-1.74-2.4447 0-3.4434 1.7966-1.8721 3.3679 1.2041 1.2041 3.76 0.19099 4.1106-1.6294zm27.86 3.6098c8.3008-6.2545 12.194-11.087 12.294-15.26 0.0426-1.7712 4.6557-9.8708 7.2631-12.752 2.7583-3.0481-3.9486-17.068-14.164-29.607-3.9301-4.8243-7.5325-9.7743-8.0053-11-0.83339-2.1604-0.88085-2.1674-1.5505-0.2286-0.37996 1.1-1.1009 2.9-1.602 4-6.8824 15.106-9.8641 35.348-8.0939 54.947 1.7892 19.809 1.2345 19.413 13.859 9.9009zm23.62-3.6c0.7199-9.9253 2.5734-15.403 10.679-31.561l6.1761-12.311 2.3739 2.5615c1.3056 1.4088 3.322 2.5615 4.4807 2.5615 2.578 0 1.6885-1.7835-1.4928-2.993-1.5384-0.58488-2.583-2.12-3.1904-4.6883-1.4323-6.0563-2.9155-4.0479-8.8784 12.022-0.7839 2.1126-2.503 5.122-3.8202 6.6874-5.2274 6.2124-10.584 25.068-9.2071 32.409 1.1069 5.9002 2.2456 4.0462 2.879-4.6875zm7.658-4.7594c0.0805-1.0086-3.8784-2.9306-4.3765-2.1247-0.2804 0.4537-0.80367 2.807-1.1628 5.2295l-0.653 4.4046 3.0758-3.5c1.6917-1.925 3.0941-3.7292 3.1165-4.0094zm-12.621 0.80436c0.57878-4.8869-0.1009-6.7246-2.5075-6.7796-1.6155-0.0369-4.1071 10.195-2.6997 11.087 3.2797 2.0777 4.5782 1.0036 5.2072-4.307zm-35.533-3.5126c0.27284-2.7387-0.49315-3.716-7.2226-9.2148-4.1403-3.3832-8.1026-6.9636-8.8052-7.9565-6.5912-9.3152-9.3885-10.576-7.7251-3.4826 2.1695 9.2523 23.078 27.433 23.753 20.654zm-16.437-6.4954c-1.69-2.73-7.37 2.32-7.37 6.56v2.9954l3.9273-4.3828c2.16-2.4105 3.7085-4.7369 3.441-5.1697zm72.448 3.5035c2.0258-1.4902 3.8815-2.851 4.1238-3.0238 0.99737-0.71158-2.7325-3.1825-6.9405-4.5979-5.3249-1.791-6.7544-0.95689-7.6324 4.4536-0.4805 2.961-0.21283 3.6533 1.7835 4.6131 3.5312 1.6977 4.6464 1.5118 8.6656-1.4449zm-7.2086-0.58774c-2.8339-2.0722-1.2798-5.9165 2.2277-5.5108 2.222 0.257 2.6642 0.80376 2.6642 3.2944 0 3.4015-2.0197 4.3166-4.8919 2.2164zm-10.837-2.8902c-0.6172-1.8516-2.4613-2.0616-3.1162-0.35476-0.41478 1.0809 0.022 1.5423 1.4601 1.5423 1.1395 0 1.8759-0.52804 1.6561-1.1875zm-58.77-2.25c0-0.68091-0.9-2.0525-2-3.048-1.9757-1.788-3.3353 2.8314-1.4022 4.7644 0.92 0.92 3.4-0.33 3.4-1.72zm21-3.694v-6.146l-2.4522 2.646c-1.3487 1.4553-2.9237 2.646-3.5 2.646-2.038 0-1.013 2.6948 1.4522 3.818 1.375 0.62649 2.5 1.5987 2.5 2.1605 0 0.56179 0.45 1.0214 1 1.0214 0.5582 0 1-2.7153 1-6.146zm66 4.4605c0-1.02-4.21-5.32-5.2-5.32-0.46592 0-2.6115-1.1676-4.768-2.5947-3.4927-2.3114-6.0432-2.5635-6.0325-0.59629 0.002 0.38004 1.9146 1.4798 4.25 2.4439 2.3354 0.96411 5.5962 2.8604 7.2462 4.214 3.0396 2.4936 4.5 3.0932 4.5 1.8475zm6.5902-4.8414c3.6115-3.8293 3.5988-4.96-0.11213-9.9912-2.2103-2.9966-13.839-9.7876-14.916-8.7107-1.2682 1.2682-0.4219 3.133 1.6878 3.7194 10.861 3.0186 15.895 12.509 6.635 12.509-4.0456 0-7.8472-6.9082-4.635-8.4226 0.6875-0.32412 0.0401-0.35997-1.4387-0.0797-1.4788 0.28031-2.9724 0.0507-3.3191-0.51033-0.77563-1.255-2.1621-0.47267-3.4599 1.9523-0.83911 1.5679-0.0359 2.3788 5.6396 5.6943 3.64 2.1263 7.1111 4.6536 7.7136 5.6161 1.5486 2.4738 2.4352 2.2198 6.2046-1.777zm-31.84-0.19c1.42-3.06 1.65-6.29 0.43-6.29-1.1822 0-5.2668 7.584-4.4985 8.3523 1.326 1.326 2.8509 0.55328 4.0643-2.0595zm-45.542-4.9958c3.8118-3.7222 4.8652-6.3203 2.5422-6.27-1.832 0.0396-8.75 6.7492-8.75 8.4864 0 2.4756 2.2114 1.686 6.2078-2.2164zm-4.6491-3.4597c5.342-5.0069 5.502-6.6988 1.007-10.645-5.0167-4.4047-6.7055-4.6375-11.39-1.5702-4.6311 3.0321-4.63 3.0392 1.8247 11.638 4.2303 5.6353 3.2345 5.5681 8.5587 0.57784zm-6.473-4.234c-1.6364-1.9718-1.004-6.0032 1.0016-6.3851 2.8094-0.53488 6.5923 3.361 5.3105 5.4691-1.4248 2.3433-4.7296 2.8228-6.3121 0.91595zm82.91 4.9c0-0.825-0.675-1.5-1.5-1.5s-1.5 0.675-1.5 1.5 0.675 1.5 1.5 1.5 1.5-0.675 1.5-1.5zm-19.766-4.4766c1.7032-3.4099 1.6944-3.4924-0.5-4.7116-3.68-2.05-5.73-1.62-5.73 1.19 0 1.375 0.43588 2.5 0.96862 2.5 0.53273 0 0.70959-0.675 0.39301-1.5-0.58835-1.5332 2.1-2.2139 2.9619-0.75 0.82961 1.409-1.2558 5.25-2.8504 5.25-0.87519 0-1.2977 0.47492-0.93899 1.0554 1.1981 1.9386 3.9471 0.47615 5.6993-3.0319zm-46.249-6.1726c0.008-0.90706-3.6948-5.1821-8.2295-9.5-4.5346-4.318-10.61-10.295-13.5-13.283l-5.25-5.43 0.0347 3.9324c0.0323 3.665 0.59757 4.422 8.313 11.134 4.5531 3.9607 10.275 9.367 12.715 12.014 4.2644 4.6253 5.8864 4.9364 5.9217 1.1356zm50.02-2.85c0.92234-1.7234 0.75433-2.0105-1.2148-2.0761-1.2568-0.0418-3.8602-0.64575-5.7852-1.342-3.011-1.0891-3.6628-1.0444-4.6648 0.31984-0.99693 1.3572-0.42038 1.8294 4 3.2759 6.6192 2.166 6.4079 2.1709 7.6648-0.1776zm-68.652-6.2454c-0.3156-0.51065-2.0806 0.53196-3.9222 2.3169s-3.0901 3.6632-2.7745 4.1738c0.3156 0.51065 2.0806-0.53196 3.9222-2.3169s3.0901-3.6632 2.7745-4.1738zm19.65 2.36c0-1.1957-0.9421-2.128-2.5608-2.5343-2.1644-0.54323-2.5127-1.1286-2.25-3.7814 0.38611-3.8992 2.0342-4.5427 4.5948-1.7942 2.3454 2.5176 2.71 1.8993 3.7397-6.3418 0.87358-6.9919-0.0103-7.1023-4.9546-0.61895-2.113 2.7708-4.6805 5.4866-5.7055 6.0352-2.7079 1.4492-2.312 3.1584 1.6845 7.2736 3.9648 4.0825 5.4519 4.563 5.4519 1.7618zm40.146-10.631c3.1473-5.9846 5.5003-11.24 5.2289-11.679-1.026-1.66-2.2092-0.67081-3.723 3.1126-0.86066 2.151-3.3845 6.8839-5.6086 10.518-2.224 3.6337-4.0437 7.3112-4.0437 8.1724 0 3.5562 2.7488 0.14033 8.1464-10.123zm-63.975 8.8674c2.2592-2.0445 2.2947-3.1726 0.17375-5.5163-2.73-3.02-4.35-2.27-4.35 2 0 5.4074 1.0758 6.313 4.1713 3.5117zm75.922-2.262c2.0184-6.737-4.1306-17.64-6.4863-11.501-0.97 2.5-0.71 7.41 0.39 7.41 0.55 0 1-0.7125 1-1.5833 0-0.87084 0.5625-1.3866 1.25-1.1463 1.5242 0.53294 1.0898 3.7169-0.76867 5.6339-1.1678 1.2047-1.7121 1.1745-3.8288-0.21241-2.5701-1.684-4.6037-0.04-3.0535 2.4684 2.6608 4.3053 10.09 3.609 11.494-1.0773zm-17.334-6.1405c1.8779-3.5434 3.7374-6.8926 4.1323-7.4426 3.203-4.4611 3.1523-6.5987-0.14197-5.9828-2.9099 0.54406-9.8534-0.46875-13.925-2.0312-1.0923-0.41917-1.9782 0.6286-3.1701 3.7496-2.2958 6.0115-2.2165 6.345 2.8459 11.976 2.475 2.7528 4.5 5.4439 4.5 5.9803 0 2.4888 2.655-0.39216 5.7588-6.2489zm-9.81-2.9937c-3.2665-3.2665-1.1094-7.8992 3.6942-7.9335 3.6061-0.0258 4.6249 5.5273 1.5282 8.3297-2.3362 2.1142-2.7429 2.0833-5.2224-0.39616zm4.8707-3.1988c-0.19-1.25-1.01-2.26-1.83-2.26-0.825 0-1.6438 1.0125-1.8196 2.25-0.24594 1.7317 0.17321 2.25 1.8196 2.25 1.6463 0 2.0655-0.51831 1.8196-2.25zm-34.758 1.6903c6.3904-7.7079 6.6142-8.1626 4.2438-8.6233-1.0748-0.2089-2.6147 0.7342-3.8053 2.3304-1.1 1.4747-3.4543 4.5761-5.2318 6.8918-2.9265 3.8127-3.4301 5.9606-1.3977 5.9606 0.41387 0 3.1998-2.9518 6.191-6.5597zm-5.95-1.2c1.9385-2.0625 4.2871-4.9828 5.2191-6.4895l1.6946-2.7395-8.7429-8.4718-8.7429-8.4718-2.2694 2.1319c-3.0339 2.8502-3.9983 1.6122-1.4891-1.9117l2.0063-2.8176-2.3922-2.99-2.3922-2.99-0.005 13.003-0.005 13.003 5.6728 6.2475c6.6589 7.3335 6.8595 7.3772 11.446 2.4975zm-7.452-6.9167c-2.18-2.18-0.62-7.33 2.22-7.33 4.4294 0 6.0062 6.2578 1.857 7.3697-2.8856 0.77333-3.2771 0.76984-4.0833-0.0364zm38.245-1.4453c0.63404-1.9866 2.7249-6.2227 4.6464-9.4137s4.3993-7.8491 5.5062-10.352c1.1069-2.5024 2.725-5.337 3.5957-6.2991 1.56-1.73 1.23-4.82-0.52-4.82-0.49953 0-1.8957 2.2954-3.1025 5.1008-1.2069 2.8054-4.202 8.2329-6.6558 12.061-4.9883 7.7823-7.7326 14.798-6.7698 17.307 0.80935 2.1091 1.8205 1.0068 3.2847-3.581zm-11.702-2.3988c0.40689-2.1941 1.4374-8.2642 2.29-13.489 2.9847-18.291 0.72683-46.262-3.5497-43.973-4.1563 2.2244-6.2511 9.648-3.392 12.021 2.5338 2.1028 6.6282 9.7524 6.2486 11.674-0.24357 1.2333-1.324 0.0834-3.5274-3.7541-1.7469-3.0426-4.4368-6.7254-5.9776-8.1839-7.7142-7.3027-23.554-20.865-23.929-20.489-0.71576 0.71576 1.6499 6.0735 3.4432 7.7983 0.92669 0.89126 2.6057 2.6974 3.7312 4.0137 1.1254 1.3163 6.4761 7.1182 11.89 12.893 10.22 10.92 14.55 16.77 14.55 19.67 0 1.6634-7.5825-5.8034-12.826-12.63-2.35-3.07-4.17-3.92-4.17-1.95 0 0.59177-2.0681 3.7636-4.5958 7.0486l-4.5958 5.9726 2.8458 2.4641c1.5652 1.3552 5.6952 4.9709 9.1777 8.0347l6.3319 5.5706 2.4081-3.2639c1.3244-1.7952 2.6679-4.0826 2.9855-5.0833 0.65321-2.0581 2.4446-2.4763 2.4389-0.56934-0.003 1.1309-1.8725 4.3512-5.1898 8.9415-0.99852 1.3817-0.88121 2.0685 0.64057 3.75 4.292 4.7426-0.86651 1.5661-6.8068-4.1915-10.56-10.25-22.53-20.76-23.62-20.76-0.56085 0-1.0502-0.7875-1.0874-1.75-0.0525-1.358-0.31913-1.2272-1.1903 0.58411-1.0479 2.1787-0.0514 3.3996 14.972 18.342 17.513 17.418 19.191 18.345 20.495 11.313zm-12.02-19.68c-1.6569-1.6569-1.5061-6.301 0.25201-7.7602 2.7488-2.2813 5.548-0.30317 5.548 3.9206 0 4.6295-3.0145 6.6251-5.8 3.8396zm18.468 19.622c0.33295-0.86765-0.13118-2.3141-1.0314-3.2143-1.52-1.52-1.64-1.4-1.64 1.58 0 3.3583 1.625 4.3551 2.6681 1.6368zm27.54-1.8179c1.2744-1.9572-0.68681-2.5988-8.7237-2.8536-6.6592-0.21112-7.9707 0.009-8.2528 1.3874-0.66482 3.2471 14.939 4.5947 16.977 1.4662zm-24.39-4.68c1.1435-1.8311 1.0531-2.1426-0.75946-2.6166-3.2476-0.84927-2.3964-2.339 1.1762-2.0586 2.9069 0.22815 9.5284-8.1384 9.7382-12.305 0.0155-0.3071-2.8884-1.2562-6.453-2.1091l-6.4811-1.5507-0.4678 3.1091c-0.86201 5.729-1.4096 18.436-0.81987 19.026 1.1505 1.1505 2.7913 0.54725 4.0669-1.4953zm-2.4058-11.419c-0.85-3.39 0.12-5.5 2.54-5.5 2.483 0 3.8424 4.3408 2.0397 6.513-1.8568 2.2373-3.8746 1.7918-4.578-1.0108zm26.367 10.656c1.6929-1.0743-3.0687-3.6312-7.5284-4.0428-2.0011-0.18466-1.4415-3.9425 0.76271-5.1222 1.7107-0.91555 1.8371-1.4054 0.84201-3.2647l-1.1707-2.1875-0.99231 2.4795c-0.54577 1.3637-1.8247 4.1808-2.842 6.2603-1.0173 2.0794-1.8497 4.187-1.8497 4.6836 0 1.5817 10.606 2.5725 12.778 1.1938zm-54.946-24.784c4.5877-6.1922 5.0373-8.1461 2.418-10.507-1.7409-1.5695-7.0821-7.5431-10.587-11.84-2.4322-2.9822-3.162-1.9063-4.522 6.6663-1.5014 9.4642-1.4762 14.376 0.0723 14.057 0.66737-0.1375 1.6741 0.7625 2.2371 2 1.6139 3.547 2.905 2.7174 6.6014-4.2416 3.2064-6.0365 4.9481-7.9614 4.9481-5.4686 0 1.685-3.6549 8.2793-5.9129 10.668-2.3863 2.5247-2.6972 4.2918-0.75505 4.2918 0.73262 0 3.2076-2.5316 5.5-5.6258zm-11.64-10.63c0.27383-3.7847 0.58123-4.25 2.8075-4.25 2.8599 0 4.0957 4.4748 1.9498 7.0605-2.6527 3.1963-5.0878 1.7577-4.7573-2.8105zm54.632 4.7698c-4.7578-12.156-6.2445-12.896-9.5568-4.7543-2.5741 6.3269-4.0983 8.4573-5.4522 7.6205-0.55882-0.34537-0.82401 0.80245-0.63669 2.7558 0.31976 3.3344 0.34883 3.3518 7.321 4.3695l7 1.0218 1.6447-2.9968c1.5467-2.8181 1.5276-3.296-0.32007-8.0166zm-8.82-14.6c0-3.4231-1.4891-2.0353-3.3064 3.0815-0.97672 2.75-2.2073 5-2.7347 5-0.53 0-0.96 1.9-0.96 4.22v4.2218l3.5-7.3033c1.925-4.0168 3.5-8.1666 3.5-9.2218zm-4.1838-1.596c0.71638-3.1884 0.52966-4.699-0.91633-7.4134-0.99882-1.875-1.867-3.1841-1.9292-2.9091-1.4161 6.2548-0.5617 18.808 1.0804 15.873 0.47602-0.8506 1.2704-3.3485 1.7652-5.5508zm-15.025-1.0495c3.1845-7.3567 1.1236-8.7648-3.2206-2.2004-2.1409 3.2352-2.4515 4.3661-1.5104 5.5 1.8568 2.2373 2.5407 1.7603 4.731-3.2996zm-4.864-3.0008c3.835-4.6525 3.8447-4.5276-0.6772-8.7316-3.7251-3.4632-6.5911-4.8614-4.2957-2.0956 2.1537 2.595 0.85112 5.8581-2.7043 6.7745-4.0961 1.0558-0.74126 7.693 3.9272 7.7694 0.37245 0.006 2.06-1.6664 3.75-3.7168zm13.06-6.02c-0.006-4.3245-3.9617-9.3099-10.827-13.644-5.16-3.26-5.17-3.26-5.17 0.45 0 1.7847-0.41658 2.8016-1 2.441-0.55-0.33992-1-2.3364-1-4.4366 0-5.184-2.5708-7.429-3.2506-2.8386-0.62853 4.2443-0.34723 4.8437 3.5163 7.4931 1.7789 1.2198 6.1593 4.9111 9.7343 8.2028 7.7031 7.0927 8.0014 7.1796 7.9952 2.3293zm-24.396-2.3637c0.12-3.26 1.11-4.89 2.96-4.89 2.8017 0-0.39832-3.8925-3.2622-3.9682-2.0126-0.0532-5.5289 8.9836-4.1446 10.652 1.7948 2.1626 4.3347 1.1361 4.4467-1.7971zm-16.907-13.389c0-9.3179-0.15891-10.276-1.4086-8.4919-0.7747 1.106-3.068 2.8874-5.0962 3.9587-2.4306 1.2838-3.0546 1.9628-1.8306 1.9919 1.262 0.03 1.6656 0.54295 1.2596 1.6009-0.35452 0.92388 0.35177 2.4483 1.7375 3.75 1.2842 1.2063 2.6384 3.4308 3.0094 4.9433 1.3771 5.6138 2.3288 2.4454 2.3288-7.7529zm44.149 3.7299c1.1991 0.19727 1.6266-0.42012 1.5422-2.2271-0.0642-1.375 0.3058-2.7717 0.82231-3.1037 1.297-0.83378 2.8078-7.8963 1.6892-7.8963-0.49208 0-0.89469 0.58552-0.89469 1.3012 0 0.71565-1.8349 4.1251-4.0776 7.5765-2.6812 4.1263-3.84 6.8484-3.3836 7.9488 0.56518 1.3628 0.87502 1.1586 1.6686-1.0994 0.61403-1.7471 1.5883-2.672 2.6336-2.5zm-2.8642-6.3169c5.0031-6.3294 5.0136-6.1489-0.70119-12.04-6.2609-6.4541-8.3142-5.3623-5.2201 2.7757 1.7778 4.676 0.44701 7.5309-3.3398 7.1649-4.104-0.39666-5.5928-7.5072-1.7806-8.5041 1.65-0.44 2.06-1.34 2.06-4.6v-4.0577l-2.3524 2.21c-4.1795 3.9264-6.1411 14.654-3.1357 17.149 2.1003 1.7431 7.7355 4.7198 9.2148 4.8676 0.67471 0.0674 3.0372-2.1679 5.25-4.9673zm-43.23-8.8c1.5927-0.83519 2.25-2.0818 2.25-4.2671 0-2.6728-0.20772-2.9149-1.5473-1.8031-1.1436 0.94911-1.2368 1.4761-0.35717 2.0197 1.1446 0.70739-5.8616 5.941-7.9532 5.941-1.4769 0-3.3644 2.8316-2.6539 3.9812 0.41649 0.6739 2.0187 0.005 4.3361-1.8115 2.0215-1.5842 4.688-3.4113 5.9255-4.0602zm-4.3533-4.645 6.8967-6.4851-0.66141-8.6047c-0.59492-7.7396-2.5144-15.191-2.6016-10.1-0.18128 10.581-8.2754 19.873-11.738 13.475l-1.7587-3.25-0.59421 6c-0.67828 6.8489-0.49626 7.4058 1.8582 5.686 0.93612-0.6838 2.8668-1.9844 4.2905-2.8902 2.4753-1.5749 4.0486-3.7395 5.4846-7.5458 1.32-3.499 2.6896-1.7946 2.0089 2.5-0.80431 5.0743-4.7582 11.118-9.2865 14.195-2.7928 1.8977-3.4655 3.6197-1.3788 3.5296 0.32083-0.0139 3.6869-2.9435 7.4801-6.5103zm29.123-4.7828c-0.55862-8.7409-1.5218-8.1635-1.5043 0.90168 0.0102 5.2859 0.32506 7.4269 0.94739 6.4428 0.51265-0.81064 0.76325-4.1156 0.5569-7.3445zm23.48 5.43c0-1.57-1.77-3.11-3.58-3.11-0.90128 0-0.35295 2.6653 0.78179 3.8 1.738 1.738 2.8 1.4752 2.8-0.69301zm-33.336-1.6742c0.33077-0.86197 0.0916-2.077-0.53139-2.7-0.84-0.85-1.13-0.68-1.13 0.67 0 1.1954-0.50771 1.6122-1.5 1.2314-0.91371-0.35062-1.5-0.002-1.5 0.89301 0 1.9677 3.9029 1.8852 4.6642-0.0986zm25.446-5.0685c-1.82-1.28-3.09-6.37-1.58-6.37 0.2918 0 1.9267 1.5901 3.6331 3.5336 3.917 4.4613 4.9126 3.7049 1.6627-1.2633-1.3565-2.0737-2.7582-4.5578-3.115-5.5203-1.1287-3.0454-2.3304-1.9125-3.5429 3.3403-1.2306 5.3314-0.93747 6.9097 1.2835 6.9097 0.7337 0 1.6595 0.7875 2.0574 1.75 0.5317 1.2862 0.85413 1.3978 1.2167 0.42097 0.27129-0.73097-0.4561-1.994-1.6164-2.8067zm-20.05-3.8882c-0.8776-2.9411-0.88902-2.9297-0.97397 0.97397-0.0558 2.563 0.25606 3.608 0.88802 2.976 0.60229-0.60229 0.63509-2.1096 0.0859-3.95zm14.388-1.0375c3.0271-4.62 3.3216-16.001 0.43403-16.774-14.494-3.8789-16.35 0.10307-7.0142 15.049 3.0684 4.9124 4.2831 5.2308 6.5802 1.725zm24.223-4.511c1.2297-2.9851 2.2569-7.415 2.2825-9.8442 0.0536-5.0804-1.0715-4.8459-1.535 0.31995-0.17106 1.9063-1.1774 5.1829-2.2364 7.2814-2.9266 5.7994-3.6509 8.6383-2.0694 8.1112 0.72734-0.24245 2.3286-2.8832 3.5583-5.8683zm-5.3045-0.3669c6.6826-10.874 4.9723-15.972-4.8139-14.351l-6.7787 1.1233 0.60853 4.4397c1.6537 12.065 6.5585 15.989 10.984 8.7877zm-39.98 0.12312c1.1378-1.5239 2.2693-5.0597 2.6101-8.1558l0.60161-5.4656-4.5493-0.58328c-2.5021-0.3208-5.3363-0.74258-6.2983-0.93729-2.572-0.52058-2.7907 0.51858-1.3754 6.5328 2.6545 11.28 5.201 13.712 9.0112 8.6092zm63.55-10.38c2.3202-6.0547 1.4869-6.8275-6.9486-6.4446-8.5692 0.38901-8.8526 0.50985-6.7848 2.8932 0.83803 0.96587 2.3278 3.9105 3.3107 6.5436 0.98287 2.6331 3.182 5.9642 4.8869 7.4025l3.0998 2.615 0.60396-4.9025c0.33218-2.6964 1.1566-6.3446 1.832-8.1072zm-84.865 10.423c0.86396-0.67001 2.3832-3.6932 3.376-6.7182 0.99284-3.025 2.1661-6.4627 2.6073-7.6394 0.68355-1.8231 0.37227-2.2253-2.1054-2.7209-1.5992-0.31983-5.8993-1.9803-9.5559-3.6898-11.75-5.4936-15.34-2.1603-15.379 14.279-0.02325 9.8041 7.3315 3.5255 10.038-8.5693 1.8676-8.3451 4.6102-6.0425 4.8485 4.0705 0.0987 4.1888 2.722 12.3 3.9583 12.238 0.35278-0.0175 1.3483-0.58 2.2123-1.25zm102.96-6.97c0.0239-2.3375 0.41997-6.1977 0.88005-8.5783 0.81309-4.2072 0.77063-4.3118-1.5182-3.7373-1.295 0.32504-5.0052 0.86801-8.2448 1.2066l-5.8901 0.61564 1.1147 3.0598c1.2164 3.339 5.9444 8.8019 9.1147 10.532 3.6205 1.9753 4.4977 1.3772 4.5436-3.098zm20.96-0.2c0-1.2419-2.3715-5.4371-2.8962-5.1236-0.33207 0.19838-0.68107-2.7805-0.77556-6.6198-0.21324-8.665-0.29375-8.7374-5.479-4.9241-2.3338 1.7163-4.8777 3.1205-5.6532 3.1205-0.87488 0-1.1796 0.60031-0.803 1.5818 0.33385 0.86998 0.60699 1.7549 0.60699 1.9665 0 0.21158 2.9921 2.6498 6.6491 5.4182 6.0394 4.5719 8.3509 5.8398 8.3509 4.5806zm-55.5-11.554c4.4-0.53781 11.223-0.98126 15.162-0.98543 12.759-0.0135 25.887-3.3499 29.283-7.4416 1.7906-2.1576 1.1329-1.999-5.6325 1.3576-6.2456 3.0988-15.567 4.7042-29.281 5.043-4.1073 0.10148-7.7248 0.34339-8.039 0.53756-0.31418 0.19417-6.0419 0.85634-12.728 1.4715-6.6864 0.61514-12.969 1.274-13.961 1.4642-8.8572 1.6977-43.074-4.5048-51.491-9.3338-4.23-2.43-7.81-3.5-7.81-2.34 0 0.50017 3.2625 2.1709 7.25 3.7127s7.7 3.129 8.25 3.527c1.1019 0.79748 10.836 3.2316 14 3.5007 1.1 0.0936 6.5 0.69107 12 1.3278 14.982 1.7344 17.255 1.768 26.5 0.39261 4.675-0.69551 12.1-1.7046 16.5-2.2424zm-12-1.5801c11.204-1.8747 14.336-2.2014 27.73-2.893 5.9014-0.30472 11.893-0.99635 13.315-1.537 1.4219-0.5406 3.499-0.98291 4.6158-0.98291s3.3761-0.95816 5.0208-2.1292c1.6446-1.1711 5.0719-2.9194 7.6161-3.8852 4.6477-1.7642 6.7501-3.9856 3.7722-3.9856-0.87829 0-2.3783 0.43869-3.3333 0.97487-6.6117 3.712-15.269 6.1968-24.565 7.0506-10.248 0.94117-16.018 1.6303-36.172 4.3203-25.04 3.3421-40.612 1.0615-64.228-9.4066-2.8752-1.2745-5.5452-1.9996-5.9333-1.6115-3.4431 3.4432 26.218 13.119 44.486 14.511 15.234 1.1613 18.488 1.1112 27.675-0.42581zm10.5-6.8725c4.125-0.81506 13.012-2.0219 19.75-2.682 7.6735-0.75172 12.25-1.6191 12.25-2.3218 0-1.1421 7.4343-3.5366 10.98-3.5366 9.9002 0 16.07-15.461 8.2214-20.603-1.4046-0.9203-3.5996-2.8017-4.8778-4.181-2.0691-2.2326-2.3252-2.2996-2.335-0.61164-0.006 1.0428-0.27204 3.4733-0.59108 5.401-0.50205 3.0336-0.0298 4.1961 3.511 8.6432 5.8661 7.3675 3.4486 8.9554-19.409 12.748-4.95 0.82143-14.4 2.476-21 3.6768-16.044 2.9191-24.5 3.589-24.5 1.941 0-0.94529-0.33745-0.9793-1.3531-0.13637-1.9656 1.6313-25.201 2.7368-26.954 1.2824-0.75754-0.6287-1.624-0.89646-1.9254-0.59502-0.30144 0.30144-4.085-0.35012-8.408-1.4479s-8.9849-2.2793-10.36-2.6256c-4.1904-1.0552-0.15145 1.0312 6.5 3.3578 12.364 4.3248 42.856 5.177 60.5 1.6907zm-35.716-5.2441c0.29347-1.5352 0.17675-3.0173-0.25938-3.2937-0.43612-0.2764-0.96267-1.3974-1.1701-2.4911-0.20744-1.0937-1.2004-2.147-2.2065-2.3408-1.0061-0.19376-2.6885-1.2114-3.7385-2.2615-4.379-4.379-8.0906 0.18818-6.3233 7.7809 1.3586 5.8368 12.669 7.9887 13.698 2.6062zm8.633 2.4011c-4.72-3.45-5.83-3.72-6.91-1.71-0.99143 1.8525-0.76049 2 3.1315 2 2.311 0 4.0144-0.1362 3.7852-0.30266zm16.502-0.30433c1.7759-0.68148 2.2089-7.2227 0.67236-10.157-0.50019-0.95504-1.5449-3.193-2.3217-4.9733l-1.4122-3.2368-2.2384 3.0277c-2.0613 2.788-5.0818 10.845-5.1074 13.623-0.0171 1.8629 7.0068 3.0212 10.407 1.7163zm-10.963-6.5202c2.1113-7.5247 1.519-11.224-2.8331-17.691-1.8172-2.7004-3.6189-5.7302-4.0037-6.7329-1.0911-2.8433-5.1178 1.8652-6.885 8.0508-1.7544 6.1407 0.70216 12.914 6.8488 18.883 4.8281 4.689 4.8557 4.6789 6.8729-2.5104zm26.05 4.12c0.55-0.43781 1.9-0.96412 3-1.1696 1.6061-0.29999 1.188-0.79733-2.1228-2.5253l-4.1228-2.1517-2.1918 2.9646c-1.517 2.0518-2.7512 2.787-4.0088 2.3878-1.1527-0.36584-2.048 0.0254-2.4489 1.07-0.67356 1.7553 9.5908 1.2584 11.895-0.57588zm-56.75-1.26c-0.47189-1.4157-2.08-1.26-2.5833 0.25-0.18334 0.55 0.41666 1 1.3333 1 0.91667 0 1.4792-0.5625 1.25-1.25zm68.25-2.92c0-1.0773 0.48367-2.8625 1.0748-3.9671 0.87729-1.6392 0.73947-2.1015-0.75-2.5153-1.0036-0.27883-3.5796-2.7641-5.7244-5.5229l-3.8996-5.016-1.4113 3.347c-2.0651 4.8976-0.89386 9.0683 3.7163 13.233 4.1486 3.748 6.9941 3.9274 6.9941 0.44089zm-93 0.17c-1.375-1.0755-3.175-1.9632-4-1.9725-0.825-0.009-0.15 0.84777 1.5 1.9047 3.9356 2.521 5.6973 2.5688 2.5 0.0678zm17.781 1.25c-0.21233-0.4125-1.1777-2.4898-2.1453-4.6161l-1.7592-3.8661-2.4381 2.2904c-3.1822 2.9896-3.0814 3.6547 0.81194 5.3574 3.6423 1.5928 6.1129 1.9656 5.5306 0.83444zm87.204-0.91194c0.26678-0.26116-0.63322-1.3341-2-2.3842-2.93-2.26-6.98-2.57-6.98-0.54 0 0.78002-0.29689 2.1919-0.65975 3.1375-0.62651 1.6326 7.9525 1.439 9.6448-0.21765zm-80.97-3.59c2.7667-4.5378 1.5824-15.386-1.803-16.514-2.7452-0.91506-5.4855 5.8349-4.8474 11.94 0.93965 8.99 3.0661 10.453 6.6503 4.5739zm49.99 1.86c0-0.76616 0.63196-1.6355 1.4044-1.9319 0.77608-0.29781 2.127-3.7163 3.0197-7.6411l1.6154-7.1022-3.0751-3.8266c-8.9252-11.106-15.144-2.073-8.7214 12.669 1.372 3.1493 2.7645 6.5136 3.0944 7.476 0.71379 2.0825 2.6626 2.3438 2.6626 0.35699zm43.818-1.1457c2.8498-0.84631 5.1815-1.6772 5.1815-1.8464 0-1.4285-3.5737-6.9033-5.2916-8.1066-3.8424-2.6913-4.7084-1.9463-4.7084 4.0507 0 3.4514-0.37914 5.3247-1 4.941-0.55-0.33992-1.0025-2.279-1.0056-4.309-0.01-4.63-1.79-11.19-3.03-11.19-0.51634 0-2.13-1.8-3.5859-4-3.931-5.9401-4.6919-5.1389-4.1906 4.4126 0.77243 14.717 6.0213 19.495 17.628 16.049zm-107.94-2.9734c4.4094-6.4747 6.6554-19.9 4.1802-24.988-0.53517-1.1-1.711-3.8-2.6128-6l-1.6398-4-2.102 4.25c-1.1561 2.3375-2.6526 4.25-3.3256 4.25-2.8828 0-2.733 5.2354 0.67934 23.75 1.3366 7.252 1.6322 7.4199 4.8207 2.7379zm-5.8954 1.2621c-0.007-0.1375-0.9071-3.1026-2-6.5891s-1.9871-7.514-1.9871-8.95c0-4.2741-1.7673-1.3078-3.4061 5.7169-1.63 6.98-1.44 8.07 1.41 8.07 1.0351 0 2.1601 0.45 2.5 1 0.52383 0.84757 3.5254 1.4932 3.4871 0.75zm94.306-11c-0.56644-9.3286-1.6968-12.301-6.6557-17.5-5.8892-6.1746-6.7734-5.7365-6.0543 3 0.83368 10.129 2.1288 13.63 6.6503 17.974 5.7981 5.5708 6.5816 5.1217 6.0597-3.4739zm-59.696 0.75c1.7054-6.4842 1.7182-9.5962 0.0494-12.027-0.74467-1.0849-1.8183-3.3225-2.3859-4.9725l-1.032-3-0.95786 2.4439-0.95786 2.4439-1.8475-2.1578-1.8475-2.1578-1.379 3.7139c-3.6513 9.8337-3.6505 9.8264-1.3761 13.02 1.1758 1.6512 2.1378 3.4809 2.1378 4.0659 0 1.338 5.0304 4.1489 6.8908 3.8506 0.76493-0.12267 1.9826-2.473 2.7059-5.223zm25.357-8.1698c1.0647-7.507 0.85475-8.4315-3.848-16.947l-1.7213-3.117-1.9225 3.117c-1.0574 1.7143-2.9041 4.917-4.1038 7.117l-2.1813 4 2.5708 4.75c1.414 2.6125 2.9493 4.75 3.4119 4.75 0.46259 0 0.84107 0.52707 0.84107 1.1713 0 8.1396 5.6723 4.1903 6.9532-4.841zm54.44 4.088c2.6416-6.8839-1.1847-19.072-8.0551-25.658l-3.9011-3.7397-1.2175 10.181c-0.67361 5.6329-0.83139 10.431-0.35317 10.74 0.47539 0.30717 1.1601 1.4585 1.5215 2.5585 1.3278 4.041 10.913 8.766 12.005 5.9182zm-34.059-8.242c-0.29548-12.854-5.693-18.349-9.889-10.068l-2.6093 5.1492 3.9652 4.1214c2.1809 2.2668 4.5095 5.1822 5.1746 6.4788 1.8982 3.6999 3.5114 0.97107 3.3585-5.6811zm-63.736 4.0026c4.1275-3.4506 6.7224-13.605 4.5878-17.954-1.0055-2.0486-2.4424-5.7496-3.1932-8.2246-1.7084-5.6321-1.6317-5.5451-3.5117-3.9849-1.1866 0.98476-1.8473 1.0193-2.7242 0.1425-0.63-0.64-1.51-1.16-1.95-1.16-1.6335 0-0.80251 14.814 1.1871 21.161 1.0929 3.4865 1.9929 7.5766 2 9.0891 0.0149 3.1816 0.70482 3.359 3.6117 0.92889zm110.41-10.73c0-10.446-0.0262-10.562-2.75-12.166-1.5125-0.89074-4.55-3.7623-6.75-6.3813s-4.5268-4.7943-5.1705-4.834c-1.1999-0.074-1.7331-2.0212-2.8266-10.323-0.54765-4.1579-1.1979-5.188-5.2081-8.25-6.16-4.7-7.3-4.55-7.3 0.93 0 2.4392-0.44354 5.6015-0.98565 7.0274-1.8727 4.9257 3.8394 15.553 9.9425 18.498 1.3513 0.652 3.0643 2.0527 3.8067 3.1126 2.3737 3.3889 3.3371 2.2056 2.7056-3.3228-0.55734-4.879-0.4891-5.1128 0.96555-3.3089 1.0385 1.2878 1.5653 4.0012 1.5653 8.0622 0 7.0204 2.4507 13.144 7.3022 18.247 4.4657 4.6967 4.6978 4.3362 4.6978-7.2965zm-137.97 3.177c-0.70731-0.70731-1.0106 0.0515-0.9671 2.4195 0.05956 3.2417 0.12177 3.3039 1.0305 1.0305 0.64038-1.6021 0.61897-2.7676-0.06339-3.45zm4-2.13c-0.43764-2.2-0.84746-3.0438-0.91071-1.875-0.0632 1.1688-0.39731 3.6438-0.74235 5.5-0.56233 3.0252-0.46793 3.2195 0.91071 1.875 1.1794-1.1502 1.3525-2.4328 0.74235-5.5zm51.407 1.147c4.4861-5.4747 4.5039-5.2799-1.183-12.935-2.6125-3.5165-5.2501-7.2529-5.8613-8.303-0.9465-1.6262-1.3542-0.84209-2.75 5.2882-3.457 15.183 2.4885 24.865 9.7943 15.95zm54.581-3.7044c1.6705-6.9634-2.5741-21.555-6.4273-22.095-2.2089-0.30968-3.1292-0.55946-4.9374-1.3401-8.175-3.5292-3.8274 20.132 4.8095 26.175 4.4816 3.1359 5.2194 2.8274 6.5552-2.7405zm-103.02 1.05c0-1.65 0.45-3 1-3s1-1.0001 1-2.2225c0-2.1752-0.0292-2.1805-1.3722-0.25-1.92 2.75-3.07 8.47-1.71 8.47 0.59 0 1.08-1.35 1.08-3zm71.814-2.3823c3.6366-8.4047 2.8583-13.961-2.0477-14.618-2.0535-0.275-4.6254-1.2698-5.7154-2.2106-2.2456-1.9383-2.5527-1.6216-2.9401 3.0312-1.104 13.26 6.6247 23.223 10.703 13.797zm-37.35-1.87c2.9018-13.041 3.248-16.28 1.9057-17.829-0.75253-0.86831-1.3798-1.9933-1.3938-2.5-0.0141-0.50669-1.5229-3.2704-3.3529-6.1417l-3.3273-5.2204-2.7749 6.893c-3.1516 7.8287-3.0222 9.2791 1.6543 18.548 4.5848 9.0869 6.3256 10.58 7.289 6.25zm-24.082-14.816 0.52114-6.4339-1.0693 6.4856c-0.70172 4.2562-1.7567 7.0818-3.0692 8.22-1.3219 1.1465-1.7626 2.3379-1.3 3.5144 1.1898 3.0257 4.3265-4.4927 4.9173-11.786zm45.072 8.4993c2.7964-4.2679 4.2462-13.09 2.5838-15.724-0.76691-1.215-2.1307-4.1345-3.0307-6.4877l-1.6363-4.2786-3.6888 7.2786c-4.445 8.7706-4.4468 8.811-0.67984 14.933 1.65 2.6816 3 5.3189 3 5.8606 0 1.8139 1.7533 1.0104 3.4518-1.5818zm30.381-7.3732 0.20205-9.94-4.5174-3.1081c-2.48-1.71-4.51-3.61-4.51-4.22 0-1.3946-1.3158-0.16679-1.6008 1.4936-0.11525 0.67158-0.77971 3.2993-1.4766 5.8394-1.4474 5.2759 1.2623 11.612 7.327 17.132 4.2954 3.9096 4.3596 3.8088 4.5832-7.19zm-81.812 1.44-0.79087-4-0.115 4.95c-0.0694 2.9862 0.24439 4.5731 0.79087 4 0.50863-0.53341 0.55906-2.704 0.115-4.95zm4.3662-8.0483c0.41564-3.7036 0.32522-5.3851-0.23939-4.4517-0.49903 0.825-1.1721 4.65-1.4958 8.5-0.6932 8.2462 0.72735 4.9319 1.7352-4.0483zm120.09 5.8c-0.40597-0.9625-1.1324-4.225-1.6143-7.25-1.2763-8.0117-7.5358-15.659-10.44-12.755-1.2192 1.2192 3.8298 13.837 6.9909 17.47 3.8272 4.3996 6.3914 5.6831 5.0634 2.5345zm-57.599-6.1854c3.7914-8.8134 3.037-13.426-3.2789-20.047l-5.4021-5.6635-2.4157 6.0886c-2.8167 7.0994-2.5894 8.6301 2.682 18.056 4.3615 7.799 5.6317 8.0354 8.4148 1.566zm-50.478 1.0476c1.61-1.78 5.6-11.07 5.6-13.05 0-0.50584-1.0125-1.0635-2.25-1.2393-1.5461-0.21959-2.6234-1.4144-3.4436-3.8196l-1.1936-3.5-0.0564 3.691c-0.031 2.03-0.5422 3.9912-1.1359 4.3581-0.75838 0.4687-0.92548-2.4139-0.56175-9.691 0.53324-10.669-0.0264-7.7448-1.8393 9.6106-0.98741 9.4524-1.8292 7.9554-1.2722-2.2623 0.5104-9.3627 0.13585-11.225-1.0157-5.0507-2.5894 13.883 1.842 26.841 7.167 20.956zm26.075-5.3489c4.5018-6.6848 4.4406-7.6694-0.88325-14.206-2.4254-2.9777-4.7057-6.3464-5.0674-7.4859-0.90645-2.856-1.8018-2.5976-3.3839 0.97649-0.74212 1.6766-2.4599 4.3682-3.8174 5.9814-2.986 3.5486-2.6597 5.0317 3.0183 13.72 4.9581 7.587 5.6594 7.6572 10.134 1.0134zm51.123-3.7233c1.2509-4.2364 1.7265-7.7743 1.5099-11.23-0.0583-0.92951-2.5792-3.4045-5.602-5.5s-5.7532-4.5975-6.0674-5.56c-0.81-2.46-2.44-2.18-2.44 0.42 0 1.193-1.35 4.5612-3 7.4848-4.8192 8.5392-3.3038 12.052 7.27 16.85 6.4995 2.9498 6.7494 2.8759 8.3262-2.4644zm-38.484-16.084c2.4654-8.0832-2.9484-10.759-15.393-7.6068l-2.7805 0.70422 2.7565 3.7233c1.5161 2.0478 4.3236 5.6841 6.239 8.0807l3.4825 4.3574 2.3071-2.8574c1.2689-1.5716 2.7936-4.4522 3.3881-6.4014zm-27.762 4.2267c2.4049-2.1764 4.6494-6.5529 4.6494-9.0657 0-2.2781-1.2081-2.7726-9.5462-3.9074l-6.0461-0.82288 0.82786 6.9316c1.3151 11.011 3.7256 12.647 10.115 6.8644zm93.64 2.96c0-5.6902-5.5863-13.233-12.623-17.045-6.9112-3.7432-6.8771-3.7633-6.8771 4.038v6.3334l5 2.7576c7.2306 3.9878 14.5 5.9508 14.5 3.9156zm-45.38-5.4c2.4994-3.6846 2.8864-5.197 2.9093-11.369l0.0265-7.1192-5.0265 1.7192c-2.7646 0.94554-7.4173 2.2884-10.339 2.9841-6.054 1.4413-6.0508 1.3885-0.57684 9.6354 6.3025 9.4952 8.8333 10.303 13.007 4.1499zm-74.41-2.4482c-0.46363-2.4253-0.60695-2.5157-1.2275-0.77387-0.78978 2.2168-0.17077 4.7084 0.99132 3.9902 0.4186-0.25871 0.52489-1.706 0.23619-3.2163zm5.59 0.5c0.66-0.66 1.2-2.76 1.2-4.6667 0-4.8323-1.6008-2.6545-1.9235 2.6167-0.0421 0.6875-0.56606 1.25-1.1644 1.25-0.70606 0-0.88015-1.4917-0.49601-4.25 0.65469-4.701-0.63942-2.6202-1.8658 3-0.76479 3.5048 1.6366 4.6632 4.2497 2.05zm92.042-4.666c1.7164-5.7289 0.99717-17.628-1.1982-19.824-0.29226-0.29226-3.4047 0.86839-6.9165 2.5792s-6.9424 3.1106-7.6234 3.1106c-1.792 0 1.1165 8.5433 4.0933 12.023 5.6947 6.6577 10.046 7.4464 11.645 2.1105zm-44.34-9.13c4.6006-0.0209 12.114-1.7334 17-3.875 1.1-0.48211 4.7-1.6619 8-2.6218 10.066-2.928 28.349-14.989 26.112-17.225-0.56903-0.56902-11.828 7.6052-12.89 9.3587-0.42771 0.70594-2.2277 1.709-4 2.229-1.7723 0.52002-8.3973 2.5859-14.722 4.5908-12.429 3.9399-18.521 4.9201-41.345 6.653-10.963 0.83234-16.303 0.8345-20.417 0.008-6.7507-1.3557-8.1231-0.72099-2.0888 0.96611 6.8168 1.9059 28.463 2.6527 34.351 1.1851 2.75-0.6855 7.25-1.2566 10-1.2691zm58.559-7.3228c-4.1901-12.577-5.9174-14.177-10.504-9.7314-2.7369 2.6527-3.2344 3.7122-2.5472 5.4249 0.46966 1.1706 1.122 3.3792 1.4496 4.908 0.78716 3.673 4.6932 6.9656 9.8574 8.3093 5.4612 1.421 5.3595 1.9399 1.7446-8.9108zm-58.433 2.3002c18.293-3.1274 31.564-7.9209 41.446-14.971 4.6282-3.3017 8.7993-6.1313 9.2692-6.2879 0.46989-0.15663 0.69774-1.2787 0.50632-2.4934-0.32233-2.0455-0.86493-1.8051-7.348 3.2562-7.7446 6.0461-19.411 11.207-31.5 13.936-4.125 0.93097-10.292 2.3428-13.706 3.1374-11.933 2.7782-44.01 1.0764-47.657-2.5283-2.3429-2.3153 0.81746-2.6652 6.608-0.73158 5.3061 1.7719 8.6818 2.0879 22.255 2.0833 18.547-0.006 23.158-0.82328 46.735-8.2814 7.3215-2.316 22.194-12.725 23.34-16.334 1.2747-4.0161-1.2662-3.9972-5.2623 0.039-8.3 8.38-35.54 18.2-50.49 18.2-2.2871 0-6.5818 0.76391-9.5438 1.6976-5.8432 1.8419-30.043 0.58257-32.802-1.707-1.4944-1.2403-2.4542 1.5676-2.475 7.2404-0.0112 3.071 0.38436 3.8127 2.2364 4.1933 1.2375 0.25427 4.05 0.89634 6.25 1.4268 5.785 1.3949 29.067 0.36 42.126-1.8726zm-29.63-11.84c0-0.47339-2.2258-1.1243-4.9462-1.4465-2.7204-0.32219-6.2079-1.2279-7.75-2.0126-5.61-2.86-7.3-3.01-7.3-0.69 0 1.2129 0.44529 1.8512 1.0365 1.4858 0.57008-0.35233 3.3826 0.0624 6.25 0.92168 2.8674 0.85925 6.5635 1.7285 8.2135 1.9318 1.65 0.20321 3.3375 0.4369 3.75 0.51931 0.4125 0.0824 0.75-0.23749 0.75-0.71088zm22.304-3.523c3.7447-1.0041 5.6964-0.68112 5.6964 0.94274 0 0.85746 0.4152 1.3024 0.92266 0.98878 0.50746-0.31363 3.32-1.0452 6.25-1.6256 2.93-0.58047 6.4428-1.2779 7.806-1.5498 1.3633-0.27193 2.7244-0.8919 3.0246-1.3777 0.30024-0.48581 2.4564-1.3126 4.7915-1.8372 2.3351-0.52466 5.249-1.6065 6.4754-2.404 1.2264-0.79757 3.9214-2.0046 5.9889-2.6823 2.0675-0.67771 4.3175-1.7584 5-2.4016 0.68247-0.64319 3.1534-2.4681 5.4909-4.0554s4.25-3.2748 4.25-3.75c0-1.4668-1.4108-0.96483-4.0102 1.4267-3.779 3.4769-18.034 10.889-21.99 11.434-1.925 0.26524-5.3 1.1334-7.5 1.9292-5.4176 1.9598-5.4212 1.9608-10.25 2.8333-2.3375 0.42235-4.25 1.2504-4.25 1.8401 0 0.69192-0.4256 0.64659-1.2-0.12781-1.3224-1.3224-9.2081-1.4296-17.8-0.2419l-5.5 0.7603 6.75 0.1408c5.6595 0.11805 6.7687 0.42353 6.866 1.8908 0.10163 1.5332 0.1702 1.546 0.55356 0.10263 0.24066-0.90606 1.426-1.9124 2.634-2.2364zm-11.497-2.1978c32.704-1.922 40.908-4.893 30.924-11.199-3.4483-2.1778-6.8784-4.6932-7.6224-5.5896-2.8932-3.4861-5.4819-0.2554-8.1089 10.12-0.59184 2.3375-1.4206 4.25-1.8417 4.25-1.9202 0-9.8016-5.9247-11.076-8.3264-1.9671-3.7064-2.6761-3.4061-5.6048 2.3734-4.1038 8.0984-8.604 8.0809-13.172-0.0513-3.282-5.8435-4.4162-6.1783-5.9122-1.7457-0.60329 1.7875-1.3973 3.9351-1.7644 4.7725-0.52085 1.1881 0.70979 1.9131 5.6022 3.3005 3.4483 0.97789 7.1697 2.1494 8.2697 2.6034 1.1 0.45401 2.363 0.61395 2.8067 0.35543 0.4437-0.25851 3.8187-0.64704 7.5-0.86339zm-69.382-3.03c0.87-0.33 1.582-1.23 1.582-2 0-0.8 1.018-1.39 2.418-1.39 3.038 0 5.582-0.95 5.582-2.08 0-0.48-1.35-0.6-3-0.27-1.9111 0.38222-3 0.19167-3-0.525 0-0.61875 0.89871-1.125 1.9971-1.125 7.0273 0 5.2763-11.389-1.8145-11.802-5.1772-0.30194-7.1096 1.0651-3.0182 2.135 1.8282 0.47809 1.9645 0.80692 0.87756 2.1166-1.8295 2.2044-5.6214 1.9184-7.9685-0.60083-2.4113-2.5882-1.624-4.6567 0.90219-2.3705 1.5274 1.3823 1.8559 1.4031 2.3376 0.1479 0.30823-0.80323-0.08617-1.7085-0.87644-2.0118-2.9497-1.1319-1.272-2.1182 3.8129-2.2414 9.6029-0.23281 16.041-3.2946 7.0592-3.3574-1.205-0.008-2.4802-0.48335-2.8338-1.0554-0.41682-0.67443 0.26555-0.8121 1.941-0.39159 3.3745 0.84694 3.2831 0.51591-1.1662-4.2234-7.8813-8.395-23.368-16.892-28.922-15.868-2.547 0.46935-3.4827 0.14066-4.75-1.6687-2.0349-2.9052-2.0392-4.412-0.0067-2.3796 0.86428 0.86429 2.083 1.5714 2.7082 1.5714 0.62523 0-0.79113-1.9644-3.1475-4.3653-2.8727-2.927-4.5951-5.749-5.2278-8.5648-0.98888-4.4012-4.3223-8.0955-9.1544-10.146-1.5125-0.64173-2.75-1.5935-2.75-2.115 0-3.038-4.4713 0.076-5.7842 4.0284-1.7962 5.4074-0.61659 7.1264 3.1823 4.6373 3.245-2.1262 5.1122-0.89866 6.0238 3.9603 0.34709 1.8501 1.2942 3.9142 2.1046 4.5868 0.81 0.67 1.473 2.29 1.473 3.6 0 1.71 0.561 2.38 2 2.38 1.3718 0 2 0.66667 2 2.1224 0 1.7732-0.2468 1.9176-1.5 0.87756-1.7554-1.4569-1.8467-1.0422-0.53201 2.4158 0.64698 1.7017 1.476 2.351 2.5 1.9581 0.843-0.32 1.532-0.09 1.532 0.52s-0.648 1.11-1.441 1.11c-0.79254 0-1.7216 0.45403-2.0645 1.009-0.979 1.58 0.481 4.99 2.141 4.99 1.0449 0 1.3074 0.60677 0.86522 2-0.44383 1.3984-0.1797 2 0.87805 2 0.83205 0 2.1019 1.2375 2.8218 2.75 0.71995 1.5125 2.3195 3.1942 3.5546 3.7371 2.8082 1.2345 2.9031 2.5129 0.18655 2.5129-1.194 0-1.7842 0.44473-1.4048 1.0586 0.37529 0.60722 1.8927 0.78652 3.559 0.42054 2.48-0.55 2.905-0.33 2.905 1.44 0 1.22-0.647 2.08-1.559 2.08-0.8626 0-1.2606 0.4829-0.89091 1.081 0.37274 0.60309 1.7674 0.80511 3.1547 0.45694 2.475-0.62 5.295 0.81 5.295 2.69 0 0.55235-1.0995 0.71002-2.5 0.35851-3.1194-0.78293-3.2876 0.92233-0.25 2.5342 1.2375 0.65663 2.8198 1.9965 3.5163 2.9775 1.055 1.486 1.7661 1.6094 4.2625 0.73911 3.18-1.11 5.971-0.58 5.971 1.13 0 0.57-1.125 1.03-2.5 1.03s-2.5 0.45-2.5 1c0 1.4009 4.3491 1.2509 5.8-0.2 0.66-0.66 1.2-2.01 1.2-3 0-1.0994 0.73678-1.8 1.893-1.8 1.0412 0 2.152-0.675 2.4686-1.5 0.34328-0.89459 1.8485-1.5 3.7294-1.5 2.69 0 2.9708 0.22059 1.9089 1.5-0.68469 0.825-2.2023 1.5046-3.3724 1.5102-1.5303 0.007-2.598 1.1303-3.8033 4-1.2673 3.0173-2.2423 3.9936-4 4.0051-1.868 0.01-2.03 0.2-0.825 0.98 1.7762 1.1478 2.3241 1.1966 4.4182 0.39301zm-14.218-9.59c-1.738-1.738-1.4752-2.8 0.69301-2.8 1.8995 0 3.4907 2.2829 2.3714 3.4022-0.894 0.9-1.732 0.73-3.064-0.6zm1.9311-5.142c-0.61257-0.7381-0.84868-1.6071-0.52468-1.9311 0.967-0.97 3.394 0.38 3.394 1.88 0 1.7673-1.4235 1.7926-2.8689 0.051zm15.869-0.66c0-0.55 1.1516-1 2.559-1 1.4514 0 2.2915 0.43284 1.941 1-0.33992 0.55-1.4915 1-2.559 1-1.068 0-1.941-0.45-1.941-1zm-20-3.5c-1.023-1.2327-0.94375-1.5 0.44494-1.5 1.2144 0 1.5175-0.54307 1.0772-1.9302-0.5616-1.7694-0.36276-1.8359 2.3873-0.79787 3.08 1.1626 2.6734 3.7281-0.59091 3.7281-0.79011 0-1.1585 0.45-0.81854 1 0.97772 1.582-1.1204 1.1624-2.5-0.5zm-5.4604-6.8474c-1.161-0.85-1.45-1.59-0.782-2 1.521-0.94 4.242 0.32 4.242 1.96 0 1.7546-1.1033 1.7692-3.4604 0.0456zm10.919 0.28083c-1.1726-1.8974 0.53762-2.3655 2.2792-0.62395 1.5589 1.559 1.5617 1.6905 0.03521 1.6905-0.9104 0-1.9519-0.47994-2.3144-1.0665zm-6.832-5.3801-1.6031-2.4467 2.9818 1.6967c3.18 1.81 3.878 3.2 1.609 3.2-0.76174 0-2.1064-1.101-2.9881-2.4467zm7.832 1.3801c-1.1726-1.8974 0.53762-2.3655 2.2792-0.62395 1.5589 1.559 1.5617 1.6905 0.03521 1.6905-0.9104 0-1.9519-0.47994-2.3144-1.0665zm-18.459-3.86c0-1.14-0.45-2.07-1-2.07s-1-0.675-1-1.5 0.6199-1.5 1.3776-1.5c3.1684 0 5.3285 6.1797 2.3724 6.7871-1.2196 0.25059-1.75-0.26884-1.75-1.7138zm11.904-0.68866c-1.1599-1.3975-1.0864-1.5661 0.54469-1.25 1.0369 0.20094 2.0726 0.92784 2.3015 1.6153 0.59396 1.7839-1.26 1.5459-2.8462-0.36534zm-7.704-1.58c-1.4224-1.4224-1.6047-4.8-0.25902-4.8 0.51754 0 1.207 0.43035 1.532 0.95633 0.32507 0.52598 1.2516 0.70283 2.059 0.39301 1.8093-0.6943 1.8425 0.5735 0.07593 2.9007-1.5753 2.0752-1.84 2.118-3.408 0.55zm-9.2-5.74c0-0.51754 0.38965-1.1818 0.86589-1.4761 1.0315-0.63749 0.27263-5.3792-0.98529-6.1567-1.412-0.88-1.016-2.43 0.619-2.43 0.825 0 1.5 0.74502 1.5 1.6556s1.1143 3.1165 2.4762 4.9021c2.0992 2.7522 2.239 3.3375 0.91821 3.8444-2.365 0.91-5.394 0.72-5.394-0.34zm94.77 37.39c2.8703-2.0104 4.2901-4.7496 5.6604-10.92 1.2977-5.8439 4.5699-7.8471 4.5699-2.7976 0 1.5826 1.4063 5.1031 3.1251 7.8233 5.2457 8.3019 7.1347 8.504 9.3171 0.99668 0.87125-2.997 2.0282-5.7236 2.571-6.059 2.0971-1.2961 0.85749-5.2123-2.7717-8.7561l-3.7585-3.6701-5.4915 2.7826c-3.0203 1.5305-7.5165 4.0894-9.9915 5.6867-3.2124 2.0731-5.692 2.8859-8.6659 2.8406-4.6626-0.071-4.6285-0.72143-0.46576 8.8744 2.2709 5.2349 2.6788 5.456 5.9014 3.1987zm59.48-4.2146c6.07-3.09 7.86-5.24 4.34-5.24-1.9394 0-8.1874-6.4495-11.157-11.517-2.09-3.58-3.17-4.48-5.36-4.48-1.9169 0-3.149-0.77166-4.1154-2.5774-3.0088-5.622-4.5816-4.93-5.8186 2.5598-2.0817 12.605-1.6696 15.098 3.0347 18.355 4.5696 3.1638 5.7754 2.5758 5.8187-2.8378 0.0452-5.6536 1.2851-13.5 2.1332-13.5 0.77489 0 0.47833 9.1113-0.64331 19.765-0.54238 5.1516 0.68386 5.0963 11.766-0.53059zm-75.539-0.51734c0.66549-1.9966 1.361-4.7576 1.5455-6.1357 0.18455-1.378 0.64598-2.816 1.0254-3.1954 0.37942-0.37942-2.4653-2.2597-6.3217-4.1783-8.7785-4.3676-9.0973-3.9927-4.7068 5.5364 1.9654 4.2659 3.8759 8.7934 4.2454 10.061 0.92413 3.1704 2.7633 2.2587 4.2122-2.0882zm-29.475-4.9342c-1.0328-2.1437-1.1038-2.0726-1.1674 1.1674-0.05159 2.6298 0.20986 3.1725 1.0997 2.2826 0.86315-0.86315 0.88079-1.7622 0.06768-3.45zm112.26-10.79c1.1457-11.13 0.98842-18.909-0.41021-20.287-0.97071-0.9566-1.1634-0.58671-0.91265 1.7518 0.50263 4.6874-2.5316 4.4756-5.7594-0.40185-3.3396-5.0464-4.416-5.1221-4.4466-0.31261-0.0131 2.0625-0.42429 5.4755-0.91372 7.5844-1.0333 4.4526 0.35624 8.5557 5.3052 15.666 5.429 7.7995 5.9528 7.506 7.1373-4zm5.9379 7.9012c4.2831-2.5271 4.2659-1.87 0.16305-6.2203-3.8322-4.0633-4.5634-3.3358-4.5922 4.569-0.016 4.3941-0.14081 4.3476 4.4292 1.6512zm-75.25-6.4c0.17032-0.55-0.70283-1.4442-1.9403-1.9871-4.9111-2.1546-2.6615-3.1295 2.3702-1.0271 3.1218 1.3044 3.881 1.3077 6.2179 0.0272l2.6619-1.4586-3.25 0.59784c-1.8335 0.33727-3.25 0.17747-3.25-0.36663 0-1.0975 4.3601-3.2855 6.547-3.2855 0.79912 0 1.453-0.7125 1.453-1.5833 0-0.87084-0.3375-1.4189-0.75-1.2179-0.4125 0.20099-2.1 1.0165-3.75 1.8123-1.65 0.79577-3.3365 1.977-3.7477 2.625-0.55678 0.87732-1.642 0.90369-4.25 0.10327-4.2-1.29-4.58-2.74-0.71-2.74 1.5337 0 4.5253-0.88542 6.6479-1.9676s4.2428-1.7306 4.7114-1.441c0.46866 0.28964 0.8521 0.10466 0.8521-0.41107 0-1.6986 5.9692-3.6111 7.2556-2.3247 1.9289 1.9289 5.2484 1.2863 9.5857-1.8556 2.2778-1.65 4.7078-3.0143 5.4-3.0318 0.69226-0.0175 2.1587-0.74873 3.2587-1.625 1.9731-1.5718 1.9698-1.586-0.25-1.0618-3.2456 0.76646-2.9144-2.0216 0.42059-3.5411 2.033-0.92631 2.7642-0.93611 3.0625-0.0411 0.2583 0.7749 1.1377 0.49937 2.5794-0.80818 4.4002-3.9907 5.2297-4.6362 7.4375-5.7878 1.2375-0.6455 2.25-1.8469 2.25-2.6698 0-0.82291 0.6962-1.7634 1.5471-2.0899 0.85091-0.32653 3.2536-2.2249 5.3392-4.2186 2.0857-1.9937 5.4297-4.9749 7.4313-6.6249 2.0015-1.65 3.6489-3.7178 3.6608-4.595 0.026-1.9164 2.2078-3.8338 7.3448-6.4545 4.5148-2.3033 6.6694-4.4505 4.4659-4.4505-0.80068 0-1.7469 0.29116-2.1028 0.64701-1.0244 1.0244-11.113 4.2594-11.64 3.7324-1.1189-1.1189 1.8919-3.907 4.5548-4.2179 1.5945-0.18616 3.3491-0.69002 3.8991-1.1197 0.55-0.42966 2.6477-1.3116 4.6616-1.9599 3.7156-1.1961 6.0536-4.082 3.307-4.082-2.3011 0-1.7765-4.6709 0.72105-6.4203 3.0079-2.1068 1.4815-3.2495-1.6233-1.2152-4.1858 2.7426-5.1138 1.1829-1.4664-2.4645 3.5542-3.5542 0.70167-4.7898-3.7483-1.6236-2.0324 1.4461-4.0944 2.3826-4.5822 2.0812-1.5502-0.95805 1.8608-4.8378 4.7102-5.3575 2.657-0.48468 2.6833-0.55207 0.85781-2.1994-1.2977-1.1711-2.3424-1.409-3.3604-0.76531-2.4817 1.5693-4.2732 1.164-3.4707-0.78528 2.2624-5.4956 0.41332-7.2974-3.6838-3.5895-1.0092 0.91329-2.1209 1.3745-2.4704 1.025-0.34955-0.34954 0.39981-1.4739 1.6652-2.4986 3.3545-2.7163 1.764-4.417-2.2764-2.4342-1.7826 0.87482-3.5717 2.0758-3.9758 2.6689-0.45334 0.66539-0.74055 0.44915-0.75-0.56467-0.008-0.90366 0.65969-1.902 1.4847-2.2186 2.7716-1.0636 1.5328-2.5787-2-2.4459-1.925 0.0724-3.5 0.44689-3.5 0.83227s-2.8759 2.1165-6.3908 3.8469c-6.8046 3.3499-8.6143 5.3805-14.476 16.243-1.3016 2.4121-3.0512 5.1647-3.888 6.1168-1.1961 1.3609-1.2658 2.0393-0.32608 3.1716 0.93108 1.1219 0.9084 1.9-0.10254 3.5188-1.4973 2.3976-3.8169 2.7681-3.8169 0.60974 0-2.1744-2.7683-0.85229-8.1271 3.8813-2.5449 2.248-5.818 4.9037-7.2734 5.9016-3.1418 2.1541-5.7376 7.6537-4.4117 9.3466 0.56679 0.72368 0.47222 1.4311-0.25108 1.8781-0.63819 0.39443-1.4807 0.19885-1.8722-0.43461-0.49972-0.80857-1.166-0.62327-2.2361 0.62189-3.1955 3.7182-3.2988 4.5967-0.4771 4.0573 3.3081-0.63239 3.3471 0.21151 0.14862 3.2163-1.375 1.2918-2.5 2.9452-2.5 3.6743 0 2.5185 1.8798 1.3119 4.0941-2.628 2.1224-3.7762 4.569-5.7165 5.7364-4.5491 0.29935 0.29935-1.0026 1.8809-2.8931 3.5145l-3.4374 2.9703 4.25-0.6188c2.8535-0.41548 4.25-0.24823 4.25 0.509 0 0.6203-0.7875 1.1377-1.75 1.1498s-3.6684 0.89271-6.013 1.9569l-4.263 1.935-3.9993-3.6771c-5.7264-5.2651-16.57-11.314-25.535-14.244-2.1669-0.70823-6.3481-2.6401-9.2916-4.2931-6.088-3.42-13.153-5.15-13.153-3.23 0 0.66287 1.125 1.7178 2.5 2.3443 1.375 0.62649 2.5 1.5987 2.5 2.1605 0 1.4962-1.5688 1.2459-3-0.47856-0.68469-0.825-1.8511-1.5-2.592-1.5s-3.6036-3.344-6.3615-7.4311-5.4717-7.7136-6.0305-8.059c-1.3707-0.84716-1.3012-3.7716 0.07872-3.3117 0.60212 0.20071 2.8095 3.4865 4.9052 7.3018 4.1745 7.5996 6.7145 9.8843 4.8078 4.3247-1.0438-3.0435-5.2558-9.5523-7.037-10.874-0.40735-0.30234-1.6511-3.196-2.7639-6.4303-3.3781-9.8186-6.1092-11.564-10.301-6.5829-1.7813 2.1169-3.0627 2.7825-4.5889 2.3834-1.755-0.46-2.117-0.11-2.117 2.04 0 1.9368-0.63599 2.7572-2.5 3.225-3.2089 0.80539-3.1467 1.4169 0.5 4.9106l3 2.8742 0.0318-2.9371c0.03031-2.7988 0.10095-2.8457 1.5-0.99596 2.2407 2.9625 1.7809 4.2452-1.7818 4.9708-2.4319 0.49529-3.5017 0.25322-4.25-0.96162-2.7887-4.5276-2.939-4.6141-5.9958-3.4519-2.2024 0.83736-2.5926 1.3289-1.561 1.9665 0.75649 0.46753 1.9683 0.62256 2.6929 0.34451 1.9031-0.73027 4.2084 4.5506 2.4587 5.632-1.8098 1.1185-0.94539 4.4636 1.2633 4.889 1.4591 0.281 1.6991-0.0752 1.1711-1.7385-0.83228-2.6223 0.83253-2.7302 3.3458-0.21692 1.0312 1.0312 2.34 2.0438 2.9084 2.25 0.56837 0.20625 1.1871 1.275 1.375 2.375 0.20084 1.1759 2.4019 3.1448 5.3416 4.7782 2.75 1.528 5.4507 3.328 6.0016 4 0.55087 0.67196 3.1873 2.3468 5.8587 3.7218 4.7106 2.4246 6.5501 4.423 5.2593 5.7137-0.34512 0.34511-1.7507-0.42774-3.1235-1.7174-1.373-1.29-2.496-2.01-2.496-1.59 0 0.96825 11.766 14.438 14.755 16.892 1.2405 1.0182 2.8155 2.4044 3.5 3.0804 1.704 1.69 4.745 2.76 4.745 1.67 0-0.48691-0.5625-1.0862-1.25-1.3317-0.6875-0.24554-0.905-0.81554-0.48333-1.2667 0.42167-0.45113 1.2992-0.28774 1.95 0.3631 0.651 0.66 2.009 1.19 3.023 1.19 1.504 0 1.6485 0.3488 0.80092 1.9326-1.2501 2.3358 1.6667 4.7193 10.621 8.6794 3.1647 1.3996 6.9685 3.4095 8.4528 4.4664s3.3917 1.9217 4.2386 1.9217c0.84692 0 2.7885 1.074 4.3146 2.3868 2.699 2.3215 5.8264 2.3758 6.5271 0.11324zm-12.354-5.6336c-2.8496-1.0437-4.363-3.4227-2.7941-4.3923 0.52501-0.32447 1.9555 0.11111 3.1788 0.96798 1.2234 0.85686 3.0241 1.5579 4.0018 1.5579 0.97762 0 1.7775 0.675 1.7775 1.5 0 1.6854-2.2049 1.8165-6.164 0.36639zm8.8307-5.5331c-1.394-1.394-0.56674-2.3346 2.0833-2.3688 1.5125-0.0195 3.875-0.67854 5.25-1.4646 2.937-1.679 4-1.8381 4-0.59878 0 2.4112-9.6 6.1654-11.333 4.4321zm-18.07-1.8376c-1.5784-1.1946-1.6506-1.5377-0.42245-2.009 1.8479-0.70911 6.826 1.1057 6.826 2.4886 0 1.5038-4.1984 1.1894-6.4035-0.47954zm11.484 0.3424c-1.6522-0.61393-2.0945-1.2241-1.3946-1.924 1.1045-1.1045 6.3142-0.20747 6.3142 1.0873 0 1.3606-2.4077 1.7701-4.9195 0.83669zm-19.08-1.8c-2.3605-0.59236-3.6419-3.1228-1.5-2.9622 2.99 0.22425 6.5 1.2735 6.5 1.943 0 1.2296-2.2962 1.6977-5 1.0192zm48-2.0115c0-1.18 5.28-4.03 7.45-4.03 2.8699 0 1.58 1.7707-2.4706 3.3914-4.71 1.8846-4.9798 1.9189-4.9798 0.63426zm-36.655-1.5688c-0.32569-0.84872-0.31347-1.8218 0.0272-2.1624 0.85338-0.85339 5.6278 1.4237 5.6278 2.6841 0 1.6376-5.0035 1.176-5.6549-0.52169zm28.66 0.23c0-1.5418 6.706-4.9849 8.0687-4.1428 1.7229 1.0648 0.95266 2.0632-2.9047 3.7651-4.61 2.03-5.16 2.07-5.16 0.38zm-35.75-0.45371c-1.2375-0.20383-2.25-1.0229-2.25-1.8201 0-1.3056 4.3531-1.1252 5.9333 0.24594 0.96243 0.83507-1.5782 1.9209-3.6833 1.5742zm21 0.0628c-2.6074-0.50222-2.963-2.0834-0.66672-2.9646 0.92768-0.35599 2.469 0.27812 3.7222 1.5314 2.2067 2.2067 1.844 2.3769-3.0555 1.4332zm-6.677-1.8157c-2.1859-1.6537-1.6929-2.8455 0.78387-1.8951 0.90372 0.34679 1.6431 1.2574 1.6431 2.0235 0 1.6916-0.0228 1.6904-2.427-0.12846zm15.609-0.5249c0.50239-1.5072 5.6174-3.4874 6.5637-2.5411 0.94325 0.94325-0.91269 2.3636-4.1262 3.1579-2.1704 0.53642-2.7712 0.38439-2.4375-0.61674zm-42.43-3.59c-4.863-3.65-5.906-5.37-3.25-5.37 0.825 0 1.5 0.41294 1.5 0.91764 0 0.50471 1.6875 1.7422 3.75 2.75s3.8955 2.6199 4.0733 3.5824c0.46428 2.5129-0.70883 2.1505-6.0733-1.8762zm58.25 1.1452c0-0.81604 1.2347-1.727 2.75-2.029 1.5125-0.30144 4.6364-1.1788 6.942-1.9497 3.4529-1.1545 4.1014-1.1655 3.6782-0.0625-0.50502 1.316-2.5199 2.2804-9.2694 4.4364-4.25 1.35-4.1 1.37-4.1-0.4zm-65.826-1.8335c-3.018-3.22-2.715-4.02 0.826-2.19 1.65 0.85325 3 2.2148 3 3.0257 0 2.1129-1.3247 1.822-3.8257-0.84013zm45.462 1.534c-0.6132-0.99342 11.13-6.7868 11.998-5.919 0.9762 0.97619 0.50925 1.3038-5.8936 4.1355-3.113 1.3767-5.8598 2.1793-6.1041 1.7835zm-22.445-1.0693c-1.8853-0.53097-3.0217-1.8439-1.941-2.2425 1.0692-0.39436 7.75 1.5052 7.75 2.2035 0 0.99732-2.3505 1.0131-5.809 0.039zm11.247-0.85568c-1.0259-1.0259-1.2757-1.8486-0.62687-2.0648 1.4146-0.47153 5.1894 1.5691 5.1894 2.8054 0 1.5513-2.7107 1.1113-4.5625-0.74054zm25.028 0.64982c-0.29498-0.47727 1.2645-1.7865 3.4656-2.9094 2.201-1.1229 4.4828-2.9401 5.0705-4.0384 0.95735-1.7888 3.9982-2.8677 3.9982-1.4185 0 2.6571-11.372 10.247-12.534 8.3663zm-44.98-3.65c-2.8846-0.69383-3.8772-1.9282-2.0992-2.6105 0.84435-0.32401 1.8012-0.15877 2.1262 0.36721 0.32508 0.52598 1.4645 0.95633 2.532 0.95633s1.941 0.45 1.941 1c0 1.0374-1.0906 1.107-4.5 0.28693zm10.75-0.63434c-4.4686-1.466-4.1126-3.037 0.49238-2.1731 4.3136 0.80925 5.2576 1.2724 5.2576 2.5795 0 1.1229-1.3871 1.0248-5.75-0.40643zm47.75 0.0974c0.00003-1.396 6.3031-6.75 7.9465-6.75 2.4455 0 0.7601 3.1601-2.9267 5.4875-4.5456 2.8695-5.0199 2.9888-5.0198 1.2625zm-38.75-1.17c-4.4018-1.3536-4.131-2.9904 0.3739-2.2594 4.1042 0.66602 5.164 1.3568 3.8094 2.4829-0.51333 0.42675-2.3958 0.32619-4.1833-0.22346zm47.75-0.32c0-1.14 4.42-3.27 6.76-3.27 1.462 0 1.487 0.17657 0.20295 1.4342-1.81 1.78-6.96 3.14-6.96 1.84zm-88.408-2.77c-2.0783-3.1719-0.93858-3.184 2.908-0.031 2.7458 2.2507 2.8191 2.4621 0.86501 2.495-1.2016 0.0202-2.8511-1.057-3.7731-2.464zm23.174 1.1193c-0.95395-0.72439-1.4716-1.58-1.1502-1.9013 0.75646-0.75646 5.3847 1.3429 5.3847 2.4425 0 1.2475-2.2592 0.95875-4.2345-0.5412zm45.676-0.15112c2.15-1.64 4.55-1.94 4.55-0.59 0 0.48585-1.0125 1.1547-2.25 1.4863-3.6207 0.97031-4.3877 0.67082-2.3089-0.90151zm-56.7-0.16c-2.304-0.6-2.263-3.31 0.05-3.31 1.8548 0 4.2 1.7868 4.2 3.2 0 0.84011-1.3265 0.87466-4.25 0.11067zm14-2.9234c-2.88-1.52-3.68-3.39-1.44-3.39 1.9538 0 5.0225 2.5176 4.5787 3.7564-0.26069 0.72773-1.288 0.60687-3.1376-0.36914zm39.25-0.36c0-1.1076 5.9394-4.4196 6.6505-3.7085 0.47 0.47-4.97 4.68-6.05 4.68-0.33 0-0.6-0.44-0.6-0.97zm15 0c0-0.53588 1.35-1.6724 3-2.5257 1.65-0.85325 3-2.0568 3-2.6747 0-1.6885 6.667-7.8253 8.5013-7.8253 2.1206 0-2.8156 6.6476-5.5901 7.5282-1.0512 0.33363-1.9112 1.4322-1.9112 2.4414 0 1.1589-1.1601 2.2392-3.1492 2.9326-3.83 1.33-3.85 1.33-3.85 0.12zm-77.306-0.67c-0.352-0.35-0.426-0.98-0.166-1.41 0.615-0.99 4.472 0.01 4.472 1.17 0 1.0136-3.3469 1.2032-4.3061 0.24389zm12.167-1.3272c-1.2984-1.0817-1.8195-1.9817-1.1578-2 1.8199-0.0503 6.2971 2.1731 6.2971 3.1272 0 1.4891-2.713 0.89403-5.1392-1.1272zm60.139 0.75c0-1.9321 5.6646-5.1347 6.5495-3.7029 0.83428 1.3499-1.2393 3.4623-4.2995 4.38-1.5564 0.46674-2.25 0.25803-2.25-0.67706zm14-0.24782c0-0.80565 1.0125-2.0055 2.25-2.6663 1.2375-0.66083 3.443-2.4767 4.9012-4.0352s3.1457-2.8337 3.75-2.8337c1.4827 0 1.3925 2.3033-0.15121 3.8625-1.6949 1.7118 2.664-0.56422 6.9184-3.6125 1.7272-1.2375 3.6708-2.25 4.3192-2.25 2.0154 0 0.49272 2.4262-2.5103 4-1.5742 0.825-3.9406 2.7375-5.2587 4.25-2.6284 3.0162-5.6801 3.5959-6.5803 1.25-0.31658-0.825-1.0663-1.5-1.666-1.5-0.59972 0-0.83132 0.41921-0.51466 0.93158s-0.43191 1.6374-1.6635 2.5c-2.7911 1.9549-3.7942 1.9823-3.7942 0.1036zm-27-1.9127c0-0.75765 0.64825-1.9156 1.4406-2.5731 0.79231-0.65756 1.2218-1.7656 0.95449-2.4622-0.26734-0.69667 0.20941-1.8439 1.0594-2.5493 1.8108-1.5028 2.1058 0.002 0.34551 1.7622-0.93333 0.93333-0.71111 1.2 1 1.2 2.8672 0 2.775 0.58985-0.55 3.5164-3.1542 2.7762-4.25 3.0614-4.25 1.1061zm-66.42-2.8121c-0.84354-1.2043-1.3988-2.3246-1.2339-2.4895 0.70515-0.70515 5.6392 2.2915 5.6463 3.4292 0.01262 2.0215-2.7506 1.433-4.4125-0.93967zm10.087 0.023c-1.0083-1.1-1.5849-2.2484-1.2812-2.5521 0.741-0.74 5.614 2.51 5.614 3.74 0 1.6029-2.3699 0.95222-4.3333-1.1897zm67.333 0.17c0-1.8122 6.2507-7 8.4343-7 1.821 0 0.0528 2.1496-2.9343 3.567-1.925 0.91348-3.5 2.2846-3.5 3.0469 0 0.76233-0.45 1.3861-1 1.3861s-1-0.45-1-1zm-62.5-3c-0.33992-0.55 0.28197-1 1.382-1s2.2781 0.45 2.618 1c0.33992 0.55-0.28197 1-1.382 1s-2.2781-0.45-2.618-1zm73.5 0.45034c0-2.5129 3.4722-6.7596 3.7982-4.6453 0.19546 1.2678-0.18427 2.9553-0.84383 3.75-1.1838 1.4264-2.9543 1.963-2.9543 0.8953zm-84.971-1.4113c-0.80907-0.51167-1.1805-1.2209-0.82536-1.576 0.87435-0.87435 4.7964 0.43751 4.7964 1.6043 0 1.1899-2.0681 1.1751-3.971-0.0283zm-10.806-1.6c-1.223-0.85-2.223-2.22-2.223-3.03 0-1.1335 0.689-0.96384 2.9877 0.73567 1.6432 1.2149 3.327 1.8696 3.7417 1.4549 0.41468-0.41468-0.03925-1.1979-1.0087-1.7404-2.5896-1.4492-1.0636-3.1103 1.5901-1.7308 3.1742 1.6502 3.1797 1.6679 1.1949 3.8611-2.1844 2.4137-3.3587 2.4977-6.283 0.44943zm83.657-0.19c-0.0651-0.4125-0.0467-1.1427 0.0409-1.6227 0.0876-0.47998-0.53408-0.6066-1.3816-0.28139-0.9568 0.36716-1.5409 0.0346-1.5409-0.87731 0-0.80774 0.36515-1.4686 0.81144-1.4686 2.0169 0 5.3869-4.2594 4.0367-5.1019-1.716-1.0708 0.0364-4.235 2.6275-4.7442 1.2689-0.24937 1.5228 0.0302 0.90813 1-1.6442 2.5944-1.0577 6.9941 0.86526 6.4913 2.953-0.77221 2.9739 1.1651 0.0329 3.048-1.53 0.97953-3.3765 2.3493-4.1033 3.0439-1.5122 1.4454-2.1281 1.5829-2.297 0.51297zm31.518-0.41282c-0.38771-0.62732 0.15133-1.74 1.1978-2.4727 1.0465-0.73267 3.5086-2.9316 5.4712-4.8866 2.5519-2.5419 4.0822-3.3573 5.3719-2.8624 1.654 0.63468 1.6068 0.84709-0.56842 2.5623l-2.3719 1.8703 2.5-0.27404c3.5515-0.3893 3.987 1.3759 0.78321 3.1742-2.5203 1.4146-2.8225 1.3812-4.1786-0.46165-1.3255-1.8014-1.5229-1.829-2.1172-0.29654-0.9798 2.5266-5.2132 5.0627-6.0881 3.6472zm-40.438-2.2958c1.3131-1.3978 3.0215-2.5414 3.7965-2.5414 2.4375 0 0.82056 2.1375-2.7538 3.6404l-3.4301 1.4423 2.3875-2.5414zm33.05-1.29c0.0115-1.1219 8.0677-5.5079 8.79-4.7856 0.89218 0.89217-4.9572 5.4567-7.0478 5.4996-0.9625 0.0198-1.7465-0.30154-1.7423-0.71404zm-8.01-1.13c0-1.1616 2.9094-3.5464 3.5477-2.9081 0.9 0.91-0.74 3.79-2.16 3.79-0.76 0-1.39-0.39-1.39-0.88zm-110.57-1.89c-1.56-1.06-2.486-4.08-1.452-4.71 0.866-0.54 4.025 3.15 4.025 4.7 0 0.97118-1.1644 0.97669-2.5729 0.0122zm9.5711-2.7396c-1.236-3.25-1.263-4.49-0.096-4.49 0.4962 0 1.3693 1.34 1.9403 2.9779 1.3125 3.7649-0.44124 5.2076-1.8443 1.5172zm97.042 0.26c-0.02-1.51-0.49-2.75-1.04-2.75-2.0929 0-0.88433-3.7317 1.5708-4.8503 2.3325-1.0628 2.5138-0.99185 1.9562 0.76527-0.3823 1.2045-0.0428 2.2566 0.89821 2.7832 1.2882 0.72093 1.1516 1.2888-0.92021 3.8242l-2.4331 2.9776-0.036-2.75zm11.744-0.5c-0.48329-1.8678 2.6701-5.948 3.5263-4.5626 0.2801 0.45321 0.2732 2.059-0.0153 3.5683-0.5858 3.0644-2.8122 3.6949-3.511 0.9943zm9.22-1.63c0-2.0231 2.6451-4.0057 3.4996-2.6231 0.99 1.6-0.19 4-1.97 4-0.84 0-1.53-0.62-1.53-1.38zm-133.36-3.12c-0.35-0.91-0.001-1.5 0.893-1.5 0.808 0 1.469 0.68 1.469 1.5 0 1.9412-1.6167 1.9412-2.3616 0zm6.1033-1.6247c-1.842-1.04-2.412-3.88-0.776-3.88 0.99229 0 3.4653 3.9032 2.8579 4.5106-0.18664 0.18665-1.1231-0.0992-2.081-0.63533zm112.26 0.23c0-1.0137 3.0458-2.3945 3.7433-1.6971 0.25136 0.25135 0.16039 0.93695-0.20214 1.5235-0.8 1.28-3.54 1.42-3.54 0.17zm22-0.13174c0-1.3443 4.867-3.1755 6.219-2.3399 0.61343 0.37912 0.0579 1.2002-1.3339 1.9717-2.8906 1.6022-4.8851 1.7526-4.8851 0.36817zm-9-0.94957c0-0.57-0.68-1.03-1.5-1.03-0.825 0-1.5-0.64234-1.5-1.4274 0-1.8918 4.9433-5.7256 6.3008-4.8866 0.65269 0.40339 0.21955 1.2206-1.1175 2.1084-3.0916 2.0528-2.7058 3.2602 0.81669 2.5557 1.65-0.33 3-0.33031 3-0.00068s-1.35 1.2974-3 2.1507c-1.7084 0.88345-3 1.1098-3 0.52568zm-121.34-2.86c-2.017-2.23-2.142-4.17-0.268-4.17 0.77604 0 1.5804 1.3209 1.8268 3 0.5189 3.5355 0.55601 3.5076-1.5583 1.1713zm113.38-0.29882c-0.035-1.713 2.6583-4.5142 3.5159-3.6566 0.27546 0.27546-0.39544 1.5771-1.4909 2.8925-1.5406 1.8499-1.9993 2.023-2.025 0.7641zm-6.327-1.4996c-0.29456-0.29455 0.55104-2.1367 1.8791-4.0938 1.32-1.96 2.41-3.95 2.41-4.42 0-1.1061 2.7192-1.1239 3.4-0.0223 0.60919 0.9857-6.9061 9.3224-7.6938 8.5347zm21.29-0.39c0-1.3642 4.8085-3.5034 5.7526-2.5592 0.87 0.86-2.51 3.58-4.44 3.58-0.72 0-1.31-0.46-1.31-1.02zm11-0.0263c0-1.22 4.89-5.95 6.15-5.95 1.5943 0 0.86268 1.6175-1.9507 4.3129-2.99 2.87-4.2 3.34-4.2 1.64zm5.5-0.95c1.8655-2.0613 5.5-2.7454 5.5-1.0352 0 1.2244-3.3345 3.0352-5.5892 3.0352-1.5979 0-1.5915-0.14278 0.0892-2zm-151.9-2.59c-0.85-2.21-0.753-3.41 0.278-3.41 1.1779 0 2.1473 3.863 1.1275 4.4933-0.44074 0.27239-1.0735-0.21397-1.4061-1.0808zm111.09-1.4854c1.3139-2.2348 1.8972-2.6308 2.1391-1.452 0.35859 1.7477-1.4897 4.5248-3.0116 4.5248-0.51375 0-0.12115-1.3828 0.87244-3.0729zm32.839 0.12576c-0.32378-0.52389 0.2966-1.4263 1.3786-2.0054 1.226-0.65615 2.1892-0.69396 2.556-0.10035 0.32378 0.52389-0.2966 1.4263-1.3786 2.0054-1.226 0.65615-2.1892 0.69396-2.556 0.10035zm-138.87-4.27c-1.964-4.36-2.017-4.78-0.613-4.78 0.58246 0 0.798 0.42234 0.47897 0.93854s0.14512 1.3444 1.0315 1.8404c1.0128 0.56679 1.456 1.7971 1.193 3.3115-0.38816 2.2352-0.53949 2.1405-2.0905-1.3083zm121.33 2.22c0-0.55 0.60526-1 1.345-1 0.73976 0 2.1595-0.9 3.155-2 0.99549-1.1 2.1902-2 2.655-2 1.6942 0 0.78665 2.9275-1.3775 4.4433-2.51 1.76-5.78 2.07-5.78 0.56zm8 0.0137c0-0.87455 3.1474-3.0137 4.4343-3.0137 1.5209 0 0.27873 1.8097-1.9343 2.818-1.4283 0.65079-2.5 0.73468-2.5 0.19569zm7.3232-3.8798c0.6-2.98-0.5-4.27-1.82-2.13-0.76408 1.2363-3.5 1.3262-3.5 0.11501 0-1.5273 5.3514-4.561 5.7796-3.2764 0.26031 0.78094 0.95063 0.84093 2.1696 0.18854 2.3775-1.2724 3.4111-0.0918 1.6562 1.8917-0.76942 0.86963-1.5579 2.4439-1.7522 3.4983-0.19428 1.0544-0.98404 2.1272-1.755 2.3839-1.0846 0.36116-1.2599-0.24239-0.775-2.6671zm-26.32-0.48c0-1.6671 3.7807-5.2076 4.6416-4.3467 0.8 0.81-2.35 5.7-3.66 5.7-0.54 0-0.98-0.61-0.98-1.35zm6.5-2.65c1.302-2.5179 3.5-4.1174 3.5-2.547 0 1.6883-2.5643 5.547-3.6862 5.547-1.1122 0-1.0777-0.55595 0.1862-3zm4.5 2.4503c0-2.1622 3.3498-6.5301 4.6309-6.0385 0.82266 0.31569 2.8591-0.13102 4.5253-0.99268 4.0981-2.1192 4.713-1.0893 1.2091 2.025-1.879 1.6701-3.6165 2.3756-5.0474 2.0493-1.5672-0.35733-2.361 0.0666-2.8174 1.5045-0.56 1.77-2.5 2.89-2.5 1.45zm-0.29815-7.0818c-0.81343-0.81344 1.161-4.5267 3.2099-6.0368 2.4725-1.8222 2.5138-0.75636 0.12074 3.1156-2.3737 3.8408-2.3936 3.8582-3.3307 2.9211zm6.4663-3.0034c0.19756-1.0258 0.80304-1.7527 1.3455-1.6152 1.4534 0.3684 1.1994 2.5123-0.3592 3.0318-0.8762 0.29207-1.2202-0.20206-0.98631-1.4167zm-19.34 90.38c0.54285-1.7875 1.2439-6.0435 1.5578-9.4577l0.5708-6.2077-6.9802 4.7077c-8.1866 5.5213-8.0315 5.0184-3.1351 10.166 4.6738 4.9132 6.6749 5.1116 7.9867 0.79211zm-74.97-1.75c2.164 0 1.1325-1.9637-1.3602-2.5894-2.9256-0.73427-3.0798-1.5961-0.88499-4.9458 1.8978-2.8964 1.1334-3.2494-1.365-0.6304-2.7433 2.8756-4.3798 6.1465-3.6589 7.313 0.43982 0.71165 0.93594 0.61779 1.4922-0.28232 0.65156-1.0542 1.0971-1.0847 2.0422-0.13954 0.94514 0.94514 0.82686 1.3554-0.5422 1.8808-1.3838 0.53103-1.4713 0.84857-0.41722 1.5141 0.83658 0.52821 1.7478 0.28992 2.4441-0.63917 0.611-0.81 1.623-1.48 2.25-1.48zm120.24-9.9115c-1.904-11.21-2.3478-12.466-6.0686-17.173l-4.0144-5.0786-1.104 2.8318c-0.82502 2.1163-0.7957 3.5898 0.11602 5.8318 0.67098 1.65 1.5707 5.7 1.9994 9 1.1306 8.7028 2.7409 12.268 6.7807 15.013 4.7168 3.2051 4.6542 3.49 2.2908-10.425zm-114.85 4.3967c-0.66446-3.4759-1.6476-3.804-4.3878-1.4646l-2.362 2 2.6145-0.58966c1.8478-0.41676 2.7916-0.12801 3.2186 0.98473 0.92539 2.4115 1.4465 1.8723 0.90885-0.94039zm-11.115-7.76c-0.847-0.84-1.135-0.74-1.135 0.42 0 0.84976-0.96546 2.4023-2.1455 3.45l-2.1455 1.905 0.70052-3c1.2195-5.2225 1.1317-6.7842-0.40958-7.2857-0.825-0.26846-1.1804-0.14445-0.78988 0.27558 0.99057 1.0653-2.0778 6.71-3.2527 5.9838-1.3611-0.8412-1.1749-3.5332 0.46133-6.6695 1.0276-1.9696 1.0932-2.8012 0.24384-3.0869-0.63942-0.21508-1.7034 0.88553-2.3643 2.4458-0.66095 1.5603-1.8984 2.8369-2.75 2.8369-2.0169 0-1.9485-0.83145 0.3833-4.6555 1.787-2.93 1.787-4.34 0-4.34-0.40453 0-1.2061 1.35-1.7813 3-0.972 2.79-3.15 4.2-3.15 2.05 0-1.67 2.289-6.05 3.161-6.05 0.461 0 0.839-0.45 0.839-1 0-1.5722-2.7218-1.1674-3.3616 0.5-1.1628 3.0303-2.9133 1.5818-2.3421-1.9381 0.54136-3.336-1.4266-6.7649-2.9871-5.2044-0.35338 0.35337-0.06872 0.6425 0.63257 0.6425 0.86611 0 1.0706 0.81472 0.63755 2.5401-1.6092 6.4114 0.33975 11.94 5.6634 16.067 2.7627 2.1413 6.4098 5.3132 8.1046 7.0486l3.0816 3.1554 2.9201-3.9708c2.1777-2.9612 2.6317-4.2592 1.7855-5.1054zm98.34 2.5154c1.413-5.4888 2.1038-17.394 0.91497-15.768-0.61 0.84-1.59 1.52-2.17 1.52-1.24 0-9.22 7.26-9.22 8.4 0 5.5569 9.2241 10.71 10.475 5.8516zm13.994-15.508c1.6834-11.844 1.1492-12.509-5.4187-6.747-4.1396 3.6316-4.34 4.03-2.8706 5.7045 0.86889 0.99008 2.3371 3.2945 3.2626 5.1209 2.2266 4.3938 4.0305 2.9302 5.0267-4.0784zm16.44-10.99c-0.0604-12.229-0.37969-17.255-0.96767-15.235-0.48262 1.6582-2.6851 4.8961-4.8943 7.1952-4.9592 5.1611-4.5466 10.755 1.4194 19.243 1.943 2.7644 3.5328 5.4807 3.5328 6.0364 0 0.55564 0.225 1.0103 0.5 1.0103s0.45942-8.2125 0.40981-18.25zm-153.91 11.82c0-2.9892 0.4299-6.5656 0.95533-7.9476 1.15-3.0247-4.9034-8.039-13.455-11.146-2.75-0.99896-5.5028-2.1944-6.1173-2.6564-0.66334-0.49878-1.6273-0.22565-2.3724 0.6722-0.691 0.83-1.876 1.51-2.633 1.51-1.8433 0-1.761 1.9156 0.11331 2.6349 0.81997 0.31465 2.045 2.438 2.7223 4.7186 1.5152 5.102 9.0944 12.977 15.025 15.612 5.876 2.61 5.761 2.67 5.761-3.4zm65-10.191c0-0.34446-1.3158-3.2156-2.924-6.3804s-3.4838-7.6224-4.1679-9.9058l-1.2439-4.1517-1.2112 3.523c-3.415 9.9337-6.6543 10.708-10.632 2.5412-3.0549-6.2725-3.9673-6.7382-4.8985-2.5-0.3625 1.65-0.83095 3.6089-1.041 4.3532-0.24859 0.88081 2.3163 2.5026 7.3476 4.6459 6.6654 2.8394 7.5883 3.0289 6.7038 1.3762-0.56414-1.0541-0.75334-2.3572-0.42045-2.8959 1.2016-1.9443 2.2433-0.90647 2.8408 2.8304 0.66008 4.1279 9.6464 10.243 9.6464 6.5639zm7.3065-9.5245c3.9112-5.5906 4.3899-6.7517 3.0032-7.2839-1.6181-0.62093-3.2641 0.88312-3.2944 3.0104-0.008 0.59162-1.1403 2.1326-2.5153 3.4243-1.375 1.2918-2.5 1.8753-2.5 1.2968 0-0.57853 0.66309-1.6022 1.4735-2.2748 1.3996-1.1615 1.7824-2.6409 2.8968-11.194l0.47843-3.6716-2.9493 1.0281c-3.0236 1.054-7.8497 0.75682-11.4-0.70205-1.8912-0.77726-1.9099-0.71757-0.34303 1.0976 0.91134 1.0558 2.186 3.9446 2.8326 6.4196 0.64662 2.475 2.2635 6.4692 3.593 8.876 1.3296 2.4068 2.4174 5.3093 2.4174 6.45 0 2.4512 0.21481 2.2306 6.3065-6.4767zm-113.76-8.5854c-0.3962-1.0325-0.99415-1.0953-2.5419-0.26693-1.923 1.0292-2.023 4.2304-0.23041 7.3796 0.73072 1.2837 3.383-5.5211 2.7723-7.1126zm16.279 4.7309c2.4041-2.0036 2.3082-6-0.14365-5.9897-3.3753 0.0142-7.2558 4.8026-5.1826 6.3951 2.5128 1.9302 2.525 1.9293 5.3263-0.40541zm77.546-0.44004c2.6284-4.0115 2.7575-13.284 0.19444-13.972-6.8344-1.8355-9.3993 2.8271-6.1331 11.149 2.294 5.8446 3.5636 6.4482 5.9386 2.8234zm-16.303-9.8338c1.05-1 1.92-2.72 1.92-3.83 0-1.1147 0.44122-2.8512 0.98048-3.8588 0.86312-1.6128-3.3256-6.2247-4.4198-4.8664-0.14617 0.18144-0.75179 1.2299-1.3458 2.3299-0.74023 1.3707-2.1067 2-4.3431 2-2.6274 0-3.3764 0.47257-3.845 2.4259-0.811 3.37-3.027 3.88-3.027 0.69 0-1.4125 0.78736-2.9695 1.7667-3.4936 3.1144-1.6668 4.7461-7.9007 2.6688-10.196-2.5132-2.777-3.8656-2.3937-5.2715 1.4942-0.74514 2.0607-2.5979 4.2255-4.6552 5.4393-3.5801 2.1123-3.8695 3.7268-1.4713 8.2079 0.91754 1.7144 1.3624 1.9007 2.0155 0.84386 0.46098-0.74588 1.1831-1.0112 1.6047-0.58962 0.42158 0.42158 0.23027 1.6252-0.42515 2.6747-1.6189 2.5923 0.44102 3.8294 2.2522 1.3526 1.7195-2.3516 3.3336-0.89176 1.7744 1.6048-0.92087 1.4746-0.87126 1.9783 0.23666 2.4035 0.82268 0.31569 1.6573-0.26722 2.0203-1.4111 0.929-2.93 2.484-2.35 2.484 0.93 0 2.2527 0.7035 3.2173 3.25 4.456l3.25 1.5809 0.31923-4.1962c0.19254-2.5308 1.0855-4.91 2.25-5.995zm-6.3549 4.2636c0.62519-2.3907 1.9196-3.3858 2.7198-2.091 0.836 1.36-0.461 4.1-1.958 4.1-0.811 0-1.101-0.76-0.773-2.02zm-3.725-6.32c0-2.3 1.103-4.67 2.173-4.67 1.3986 0 0.55294 5.2714-0.92341 5.7562-0.6875 0.22575-1.25-0.26524-1.25-1.0911zm6 0.41667c0-2.11 1.313-4.09 2.71-4.09 0.95696 0 1.2802 0.57265 0.89301 1.5818-0.33385 0.86998-0.60699 1.995-0.60699 2.5 0 0.51-0.68 0.92-1.5 0.92-0.825 0-1.5-0.41-1.5-0.92zm-13.607-6.67c0.334-0.87 0.607-1.77 0.607-2s0.45-0.42 1-0.42 1 0.9 1 2c0 1.1703-0.66667 2-1.607 2-1.0545 0-1.3983-0.5438-1-1.5818zm4.4727-4.8858c-0.97233-0.97233 0.31079-5.6402 1.4464-5.2617 0.58461 0.19487 1.2096 0.79438 1.3889 1.3322 0.41771 1.2531-2.0674 4.6973-2.8353 3.9294zm-34.066 20.518c-0.9509-1.5226-1.521-1.697-2.6054-0.79709-1.1612 0.96369-1.0862 1.2709 0.4588 1.8789 3.0123 1.1854 3.4308 0.9745 2.1466-1.0818zm50.029-2.1482c1.6958-2.7153 0.45019-4.0046-1.4105-1.4599-0.78003 1.0668-1.4182 2.3036-1.4182 2.7484 0 1.5078 1.5127 0.81881 2.8287-1.2885zm44.17-6.37c0-1.7191 0.5625-3.6975 1.25-4.3964 1.0083-1.0251 0.66994-1.1321-1.75-0.55358-6.029 1.4413-7.768 2.3937-6.7391 3.6909 0.53806 0.67839 1.2918 2.9713 1.675 5.0954l0.69671 3.862 2.4337-2.2863c1.57-1.49 2.43-3.41 2.43-5.42zm-38.834-3.922c0.47568-2.7041-1.7946-3.1335-2.4909-0.47109-0.66039 2.5253 0.15436 4.454 1.3537 3.2045 0.44196-0.46042 0.95367-1.6904 1.1371-2.7334zm49.311-2.5807c5.8596-5.9491 5.6088-6.8072-1.0101-3.4562-4.1476 2.0998-4.9585 2.9716-5.0839 5.4657-0.20031 3.9827 0.38058 3.7912 6.094-2.0095zm-26.98 2.97c0.33992-0.55 1.604-1.0203 2.809-1.0451 4.0274-0.0829 8.521-2.579 6.2964-3.4976-1.3324-0.55013-2.2968-0.2322-3.25 1.0713-1.3167 1.8007-1.3939 1.8009-2.7037 0.01-1.3231-1.8094-4.2468-1.3103-3.109 0.53075 0.32 0.51-0.12 0.93-0.98 0.93-1 0-1.56-0.9-1.56-2.5 0-2.2963 0.36667-2.5 4.5-2.5 4.3333 0 4.5-0.11111 4.5-3 0-3.4846-1.7086-4.0722-2.1804-0.75-0.53079 3.7374-2.3134 1.5472-2.4059-2.9558-0.0545-2.6534 0.40693-4.3951 1.25-4.7186 0.74127-0.28445 1.3363 0.14117 1.3363 0.95581 0 2.3317 4.0225 1.667 9.5-1.57 8.5054-5.0262 8.1397-4.6958 6.75-6.0992-1.43-1.44-1.69-4.86-0.37-4.86 0.48291 0 1.518 0.96393 2.3003 2.1421 1.7547 2.6427 5.8217 1.0746 5.8217-2.2446 0-1.5771 0.44786-1.8901 2-1.3974 1.6372 0.51961 2 0.1797 2-1.8736 0-3.196 1.6562-4.2851 2.4954-1.6409 0.35166 1.108 1.3106 2.0145 2.131 2.0145s1.2327-0.41891 0.91631-0.9309c-0.31644-0.512-0.14909-1.1943 0.37188-1.5163 0.52097-0.32198 1.2299-0.12807 1.5753 0.4309 1.2284 1.9876 2.5381 0.976 1.9207-1.4837-0.40863-1.6281-0.20825-2.5 0.57457-2.5 0.66112 0 1.4374 0.9 1.725 2 0.28766 1.1 0.92053 2 1.4064 2 0.48585 0 0.88337-0.9 0.88337-2s0.39752-2 0.88337-2 1.1187 0.9 1.4064 2c0.78627 3.0067 4.5409 2.5756 5.7722-0.66284 0.7475-1.9661 1.3056-2.3697 2.1329-1.5424 0.82728 0.82728 0.78551 1.524-0.15961 2.6628-1.4094 1.6982 0.22071 2.1489 3.383 0.93539 5.4719-2.0998 0.005-5.6715-9.007-5.8848-3.2943-0.078-6.4243-0.90841-8.876-2.355-4.2062-2.4817-5.75-2.1532-3.1876 0.67832 1.5622 1.7262 1.5484 1.9526-0.21591 3.5493-1.7781 1.6091-1.923 1.6052-2.5653-0.0686-0.37443-0.97575-0.20503-1.9327 0.37644-2.1265 1.83-0.6 1.15-2.18-0.94-2.18-2.3284 0-2.7027-2.5164-0.5-3.3616 1.6975-0.65139 2.0089-3.2058 0.50425-4.1357-0.54766-0.33847-1.5404 0.64747-2.2061 2.191-0.66568 1.5435-2.4676 4.4462-4.0043 6.4503-2.88 3.77-3.52 5.86-1.79 5.86 0.55 0 1 0.675 1 1.5 0 1.8104-2.6503 2.0124-3.2798 0.25-0.24554-0.6875-0.74109-0.97945-1.1012-0.64878-0.36014 0.33067 0.0113 1.8851 0.82542 3.4543 1.8707 3.6057 1.3249 4.2138-1.3663 1.5226-1.762-1.762-2.3971-1.8959-4.0621-0.85607-1.5753 0.98378-2.6336 0.96438-5.2448-0.0961-6.1944-2.5158-8.1906-2.6578-7.3609-0.52381 0.4058 1.0438 0.75777 2.1229 0.78215 2.3979 0.19607 2.2115-0.57552 3.0021-2.9425 3.0153-1.8928 0.0105-2.3331 0.27958-1.4125 0.86309 1.4988 0.95004 1.2184 5.6216-0.33749 5.6216-0.55 0-1.2511-1.8813-1.558-4.1807-0.42128-3.1562-1.5365-5.1303-4.5508-8.0556-2.196-2.1312-5.3174-5.6499-6.9363-7.8193s-3.2661-4.1852-3.6604-4.4794c-0.3943-0.29427-1.4154-2.2068-2.2691-4.25-0.86-2.05-1.95-3.72-2.43-3.72-0.47847 0-1.1777-1.0125-1.5539-2.25-0.43092-1.4176-0.87898-1.7751-1.2112-0.96638-0.28998 0.70599-0.0386 1.8724 0.55862 2.592 1.6862 2.0318-0.0117 2.8304-2.0656 0.97156-2.1031-1.9033-2.4181-4.9628-0.58115-5.6443 2.1591-0.80098-2.6325-8.2667-5.0729-7.9041-1.3298 0.19756-2.2398-0.42096-2.6855-1.8254-0.71171-2.2424 0.4628-4.3679 1.2287-2.2235 0.24553 0.6875 0.83552 1.25 1.3111 1.25 0.47556 0 0.37892-1.3934-0.21475-3.0964-0.74797-2.1456-1.3227-2.7027-1.8718-1.8143-0.96 1.568-3.94-0.478-3.94-2.712 0-1.7199 2.6542-1.8214 3.3377-0.12756 0.34354 0.85138 0.52468 0.77165 0.56802-0.25 0.035-0.825-0.36666-2.175-0.89259-3-1.5002-2.3534-4.585 0.1179-4.2253 3.3851 0.30851 2.8026-0.6606 3.3422-2.5712 1.4316-0.65083-0.65083-1.4983-0.86833-1.8833-0.48333s-0.1675 1.2325 0.48333 1.8833c1.654 1.654 1.476 3.783-0.317 3.783-0.825 0-1.5-0.45-1.5-1s-0.39055-1-0.86788-1c-1.169 0 3.4773 13.141 4.9732 14.065 0.64982 0.40161 0.9248 1.7118 0.61106 2.9116-0.41464 1.5856-0.19405 2.0369 0.80767 1.6525 0.96482-0.37023 1.6483 0.73069 2.2791 3.671l0.90102 4.1998 1.2226-3c1.1758-2.885 1.2772-2.9256 2.6479-1.0589 1.8422 2.5089 1.8198 4.5589-0.05 4.5589-1.124 0-1.2657 0.53568-0.59505 2.25 0.48411 1.2375 1.3798 3.5348 1.9904 5.1051 1.0818 2.7818 1.1744 2.813 3.6131 1.2151 2.6217-1.7178 4.572-0.16742 2.9964 2.3819-0.3562 0.57634-0.17108 1.0479 0.41138 1.0479s1.059 0.675 1.059 1.5c0 2.2735-3.8056 1.8417-4.1804-0.47435-0.24046-1.4857-0.69079-1.7394-1.8196-1.025-1.2623 0.79894-1.0642 1.3559 1.25 3.5148 1.5125 1.411 2.75 3.1724 2.75 3.9142 0 1.7714 3.923 6.4802 3.9667 4.7613 0.0183-0.71996 0.47777-1.0343 1.021-0.69854 0.54327 0.33577 0.94934 2.7248 0.90238 5.309-0.047 2.5842 0.071 5.5985 0.26222 6.6985 0.19119 1.1-0.098 2.225-0.64256 2.5-0.5446 0.275-1.2291-0.85-1.5212-2.5-0.34915-1.9725-0.80085-2.5719-1.3188-1.75-0.4333 0.6875-1.9128 1.25-3.2878 1.25-1.4772 0-2.2369 0.42578-1.8568 1.0407 0.35375 0.57237 1.5734 0.74544 2.7103 0.3846 1.614-0.51226 1.9335-0.30788 1.4576 0.93233-1.25 3.24 17.94 10.65 19.8 7.64zm-6.8605-1.6938c-0.95-0.96-0.77-3.31 0.25-3.31 1.2268 0 2.2116 2.8173 1.2028 3.4408-0.44927 0.27766-1.1046 0.21707-1.4563-0.13464zm-0.64-8.77c0-2.5175 0.40082-3.5738 1.25-3.2941 1.873 0.61684 2.0626 4.2506 0.29826 5.715-1.35 1.12-1.55 0.81-1.55-2.42zm5.4482 1.1865c-0.81317-2.1191-0.17976-5.2256 1.0655-5.2256 1.3956 0 1.8674 4.5189 0.60375 5.7826-0.73585 0.73585-1.2374 0.56852-1.6692-0.55692zm-11.782-2.3923c-0.37-0.37-0.67-1.5-0.67-2.51 0-2.25 2.5559-2.4329 3.3963-0.24309 0.97208 2.5332-0.97887 4.4938-2.7296 2.7431zm10.094-7.5136c-0.62426-1.6268 0.76457-4.6275 1.706-3.686 0.31672 0.31672 0.19204 1.6134-0.27706 2.8815-0.65037 1.7581-0.98972 1.9492-1.429 0.8045zm-10.154-0.64624c-0.28092-0.45455-0.23188-1.893 0.10899-3.1964 0.57872-2.213 0.67022-2.2411 1.3815-0.42354 1.4108 3.605 0.24704 6.4313-1.4905 3.62zm21.39-1.68c0-1.375 0.45-2.5 1-2.5s1 1.125 1 2.5-0.45 2.5-1 2.5-1-1.125-1-2.5zm5.2 0.3c-1.362-1.362-1.6379-5.8-0.36052-5.8 0.87195 0 3.1605 4.3788 3.1605 6.047 0 1.3138-1.3591 1.1938-2.8-0.24705zm-21.083-2.0562c-1.6665-3.144-0.68074-7.4874 1.0141-4.4683 0.54819 0.97653 0.85543 2.9684 0.68275 4.4264l-0.31396 2.6509-1.3829-2.6089zm-10.92-1.94c-1.627-1.627-1.5166-3.8 0.19301-3.8 1.6813 0 3.0062 3.0008 1.8398 4.1672-0.46 0.46-1.37 0.29-2.03-0.37zm14.8-2.8c-0.68847-1.2864-0.71358-2-0.0704-2 0.55 0 1.4817 0.9 2.0704 2 0.68847 1.2864 0.71358 2 0.0704 2-0.55 0-1.4817-0.9-2.0704-2zm-11.655-1.5431c-0.80982-2.1103 0.54185-3.2497 1.694-1.4279 1.2242 1.9358 1.1997 2.971-0.0704 2.971-0.56727 0-1.2979-0.69441-1.6235-1.5431zm2.93-6.46c-0.5692-1.375-0.80047-2.8953-0.51393-3.3784 0.78407-1.322 2.4403 2.1863 1.9638 4.1598-0.33407 1.3836-0.61667 1.2313-1.4499-0.78142zm-6.6134-2.2063c-0.31733-1.2135-0.33302-2.4503-0.0349-2.7484 0.78406-0.78406 3.4148 3.0872 2.7875 4.1021-0.93489 1.5127-2.1607 0.90986-2.7527-1.3536zm-6.0226-1.646c-1.84-2.01-2.16-4.14-0.64-4.14 0.55 0 1 0.675 1 1.5s0.675 1.5 1.5 1.5c1.627 0 2.0338 1.552 0.63365 2.4174-0.4765 0.29449-1.6015-0.27688-2.5-1.2697zm55.825-0.21421c-0.36253-0.58659-0.4535-1.2722-0.20214-1.5235 0.69747-0.69748 3.7433 0.68337 3.7433 1.6971 0 1.2518-2.7433 1.1174-3.5411-0.17352zm-46.72-2.18c-1.801-1.3676-4.1092-6.7103-3.2641-7.5554 0.61879-0.61879 0.44366-0.856 3.3631 4.5554 2.4632 4.5658 2.451 4.9364-0.0989 3zm-6.5542-2.25c-0.62649-1.375-0.78872-2.5-0.36051-2.5 1.2282 0 3.1786 2.2704 3.1786 3.7 0 2.1501-1.6026 1.4676-2.818-1.2zm-3.5061-5.9022c-0.57-1.47 0.08-2.6 1.49-2.6 0.45 0 0.83 0.9 0.83 2 0 2.2929-1.5233 2.6847-2.3241 0.59777zm-7.1017-4.265c-0.88971-2.3186 1.2022-4.3015 2.4521-2.3244 0.51867 0.8204 0.94994 2.0541 0.95836 2.7416 0.0226 1.8475-2.6677 1.5184-3.4105-0.41722zm5.7951-0.93965c-0.37276-1.0412-0.85991-2.2306-1.0826-2.6431-0.22265-0.4125 0.0414-0.75 0.58681-0.75 1.1513 0 2.5822 3.8775 1.7412 4.7185-0.31227 0.31227-0.87274-0.28414-1.2455-1.3254zm-7.37-5.459c0-1.1325 0.45-1.7809 1-1.441 0.55 0.33992 1 1.2665 1 2.059 0 0.793-0.45 1.441-1 1.441s-1-0.92656-1-2.059zm8.3451-0.48411c-0.32569-0.84872-0.3415-1.7938-0.0352-2.1001 0.87571-0.87571 2.6901 0.60965 2.6901 2.2023 0 1.9189-1.9076 1.8455-2.6549-0.10214zm-5.1-0.953c-2.019-2.293-1.582-3.752 0.75-2.504 1.1 0.5887 2 1.7295 2 2.5352 0 1.8325-1.1204 1.8199-2.75-0.03101zm-6.583-2.171c-1.258-1.258-0.667-4.333 0.833-4.333 0.825 0 1.5-0.675 1.5-1.5s0.675-1.5 1.5-1.5c0.83333 0 1.5 0.88889 1.5 2s-0.66667 2-1.5 2-1.5 0.88889-1.5 2c0 1.9922-1.0655 2.6011-2.3333 1.3333zm2.333 58.697c0-0.53244 1.2375-1.6394 2.75-2.46 1.5125-0.82054 2.2243-1.5099 1.5818-1.5319-0.64252-0.022-1.8264-0.2926-2.6308-0.6013-0.98402-0.3776-1.8118 0.44043-2.5298 2.5-0.643 1.84-0.69 3.06-0.119 3.06 0.521 0 0.948-0.44 0.948-0.97zm-18.939-3.78c1.3251-1.5125 1.7636-2.1875 0.97431-1.5-1.898 1.65-3.035 1.58-3.035-0.19 0-0.79391 1.3359-2.2326 2.9686-3.1971 2.942-1.74 4.792-4.36 3.076-4.36-0.49054 0-2.2289 1.125-3.863 2.5s-3.4686 2.5-4.0767 2.5c-1.202 0-1.4681 2.8918-0.49866 5.4182 0.84846 2.211 1.6854 1.9915 4.4537-1.1682zm74.412 1.7937c0.32507-0.52598 1.2478-0.70429 2.0506-0.39624 0.81606 0.31315 1.7309-0.14698 2.075-1.0437 0.33848-0.88206 1.1872-1.6038 1.886-1.6038 0.69882 0 1.8308-0.675 2.5155-1.5 1.5835-1.908 0.53829-1.9105-2.8457-0.007-1.4599 0.82123-3.8918 1.9351-5.4043 2.4752-1.5125 0.54015-2.75 1.4432-2.75 2.0068 0 1.2925 1.6876 1.3392 2.473 0.0684zm-6.7373-2.1794c0.84762-0.84762 0.78964-1.4818-0.22857-2.5-2.1058-2.1058-3.279-1.6217-2.7519 1.1357 0.5255 2.749 1.2597 3.0851 2.9805 1.3643zm16.53-6.324c6.2725-0.49619 9.6251-5.4939 6.2532-9.3215-1.0359-1.1759-6.403 3.545-5.8881 5.1791 0.5245 1.6643 0.21487 1.8212-2.5162 1.275-2.374-0.4748-3.1143-0.26772-3.1143 0.87119 0 1.0943-0.66889 1.3262-2.5 0.86659-1.9489-0.48914-2.5-0.24406-2.5 1.1118 0 1.4767 0.56607 1.6258 3.75 0.98792 2.0625-0.41324 4.9944-0.84979 6.5154-0.97011zm-51.281-3.2135c0.008-0.64531-1.1967-2.6137-2.678-4.3742-2.9423-3.4967-4.177-2.5917-4.1574 3.0474l0.009 2.5 1.0044-2.75c1.3731-3.7596 2.8377-3.4586 2.8377 0.58333 0 1.8333 0.30676 3.6401 0.68169 4.015 0.76518 0.76518 2.2795-1.2217 2.303-3.0216zm-23.98-2.83c1.0134-1.2211 0.96312-1.5-0.27057-1.5-0.8335 0-1.7745 0.675-2.0911 1.5-0.31658 0.825-0.19483 1.5 0.27057 1.5 0.46539 0 1.4064-0.675 2.0911-1.5zm15.566-7.4024c-0.82763-1.0914-1.2062-0.53695-1.7069 2.5-0.85116 5.1626 0.14149 6.5843 1.6071 2.3017 0.82652-2.4152 0.85541-3.8053 0.0998-4.8017zm72.887 4.7419c2.5395-1.157 3.7396-5.4037 1.297-4.5895-0.6875 0.22917-1.25 0.90417-1.25 1.5 0 1.9365-1.5857 2.7293-2.5 1.25-1.1166-1.8067-2.4551-0.62835-1.6549 1.4569 0.70968 1.8494 0.85824 1.8632 4.1079 0.38261zm-77.46-5.9c0-1.7847-0.41658-2.8016-1-2.441-0.55 0.33992-1 1.7165-1 3.059s0.45 2.441 1 2.441 1-1.3766 1-3.059zm85.764 1.132c0.95504-0.50985 2.5883-1.1954 3.6296-1.5235 3.1218-0.98372 1.3579-1.4599-3.1623-0.8536-2.6367 0.35365-4.2309 1.0831-4.2309 1.9358 0 1.5935 1.3162 1.7479 3.7636 0.44133zm-23.983-12.035c2.3542-3.4706 4.008-6.5826 3.675-6.9156-0.33297-0.33296-1.044 0.17836-1.5801 1.1363-1.4021 2.5054-2.6084 2.1584-4.3753-1.2583-2.6219-5.0702-3.9759-3.729-4.231 4.1908-0.12707 3.9442-0.68957 7.6298-1.25 8.1902-1.7313 1.7313-1.1287 2.5932 1.231 1.7607 1.2375-0.43662 4.1762-3.6334 6.5304-7.104zm-28.777-4.5337c-1.2897-1.3728-2.6056-2.2341-2.9243-1.9139-0.31866 0.32018 0.48296 1.4434 1.7814 2.4961 3.3182 2.6901 3.9262 2.3805 1.1429-0.58214zm9.5697 0.10385c1.82 0.45 2.43 0.2 2.43-1 0-0.89-0.65-1.61-1.44-1.61-2.6646 0-2.7039-1.9944-0.059-3 2.9422-1.1186 2.569-3.0923-0.43623-2.3064-3.3647 0.87988-4.8892 3.4959-4.2578 7.3064 0.32683 1.9726 0.74594 2.736 0.96041 1.7494 0.28375-1.3054 0.9976-1.5957 2.8071-1.1416zm7.43-1.17c0-0.79-0.45-1.44-1-1.44s-1 0.92656-1 2.059c0 1.1325 0.45 1.7809 1 1.441 0.55-0.33992 1-1.2665 1-2.059zm28.872-1.5413c-1.81-1.15-4.87-1.14-4.87 0.02 0 1.3345 5.4127 3.01 5.8719 1.8177 0.20454-0.53111-0.24546-1.3567-1-1.8347zm-40.87-6.99c0-0.69686 1.3479-0.87277 3.75-0.48938 4.064 0.64862 7.7006-0.65211 4.8652-1.7402-1.93-0.735-11.62 0.34-11.62 1.29s1.15 2.03 2.17 2.03c0.45 0 0.83-0.49 0.83-1.09zm-7.3968-1.3205c0.29726-0.77465 1.8639-1.9566 3.4813-2.6266 1.8826-0.7798 3.1376-2.1622 3.4877-3.8416 0.71969-3.4526 1.8008-5.4144 3.2498-5.8975 0.72171-0.24057 0.94347 0.22133 0.57157 1.1905-0.45 1.198 0.04 1.586 2 1.586 1.44 0 2.61 0.546 2.61 1.214 0 0.81158 0.51054 0.70375 1.5394-0.32513 1.3859-1.3859 1.3445-1.9942-0.41524-6.0995-2.5486-5.9455-3.1555-13.279-1.102-13.316 0.8128-0.01454 2.1341-0.43656 2.9362-0.93784 0.80214-0.50127 3.6349-0.87857 6.295-0.83844 7.012 0.10578 5.4666-1.7201-3.313-3.9141-12.78-3.1938-36.868-0.6783-34.213 3.5728 1.8819 3.0128 0.35319 10.43-1.8668 9.0579-0.46081-0.2848-0.56984 0.18056-0.2423 1.0341 0.80416 2.0956-0.59263 1.9695-2.1764-0.19649-1.809-2.474-2.7967-0.95582-2.0316 3.1226 1.2579 6.7052 17.601 21.366 19.193 17.217zm-4.6774-16.469c3.683-1.0292 4.1172-3.5992 0.45452-2.6899-1.5842 0.39329-3.0304 1.1318-3.2137 1.6411-0.18334 0.50933-1.9833 0.8996-4 0.86726-3.2451-0.05205-3.4478-0.19575-1.7623-1.25 1.0474-0.65516 3.332-2.4069 5.0769-3.8928s4.038-2.563 5.0957-2.3935c1.0577 0.16946 1.3551 0.11364 0.66083-0.12404-0.69424-0.23769-1.0052-0.8481-0.69099-1.3565 0.76505-1.2379 5.1761-1.1818 5.9532 0.07568 0.9268 1.4996 4.5 1.2041 4.5-0.37219 0-2.108-7.0543-2.8168-12.306-1.2363-4.3946 1.3226-4.5206 1.3032-3.3819-0.52005 1.624-2.6004 4.6221-3.2635 13.462-2.9774 3.8542 0.12471 6.246 4.207 4.3019 7.3424-0.59 0.956-1.07 2.367-1.07 3.136 0 1.6281-8.5388 4.6761-12.688 4.529-2.7338-0.0969-2.7445-0.11856-0.38624-0.77758zm32.46 13.129c0.28293-0.9625 0.82075-5.575 1.1952-10.25l0.68076-8.5-2.3433 3c-2.832 3.6256-3.9481 4.4694-5.9122 4.4694-1.2547 0-1.2717-0.14454-0.10428-0.88376 1.76-1.12 0.7-4.086-1.47-4.086-1.3276 0-1.5268 0.70762-1.0552 3.75 0.31966 2.0625 0.85944 5.6127 1.1995 7.8893 0.79778 5.3407 6.5893 8.7601 7.809 4.6107zm6.12-2.25c-0.37968-1.7287-0.91532-2.918-1.1903-2.643-0.275 0.275-0.18936 1.9144 0.19032 3.643 0.37968 1.7287 0.91532 2.918 1.1903 2.643 0.275-0.275 0.18936-1.9144-0.19032-3.643zm80.217-0.54533c12.058-4.5386 23.146-12.749 30.858-22.849 4.5607-5.973 4.6044-5.8921-4.6126-8.5553-12.01-3.471-20.62-10.456-26.58-21.551-1.4766-2.75-2.817-5.1638-2.9788-5.3641-0.52259-0.64669-7.8138 4.1145-10.768 7.0315-1.58 1.558-3.49 2.833-4.25 2.833-1.9832 0-1.7022 2.3224 0.64177 5.3022 7.4531 9.4751 10.427 25.47 7.6134 40.948-1.0598 5.8293-0.10459 6.0382 10.08 2.2047zm-69.35-16.447c6.2813-4.0936 11.88-7.9572 23.501-16.217 6.5864-4.6816 7.8847-5.6506 13.626-10.17 1.65-1.2988 4.575-3.214 6.5-4.256 11.071-5.9927 22.239-15.526 20.373-17.392-0.68482-0.68482-1.4496-0.19888-2.3578 1.498-0.73931 1.3814-3.8577 4.1678-6.9298 6.1919s-6.8588 4.5428-8.4148 5.5971c-1.8524 1.255-3.6805 1.7032-5.2947 1.298-2.2808-0.57243-8.9517 3.5532-12.876 7.9632-0.55 0.61806-1.726 1.5411-2.6134 2.0512-0.88736 0.51007-3.1374 2.1717-5 3.6925-3.398 2.7745-13.519 10.198-22.815 16.735-8.912 6.2665-6.8434 8.9682 2.3027 3.0075zm-77.37-1.808c0-0.44-0.41537-1.2275-0.92305-1.75s-1.1153-2.3-1.3502-3.95c-0.35397-2.4862-0.45278-2.3007-0.57695 1.0833-0.08241 2.2458 0.15017 4.3833 0.51684 4.75 0.918 0.919 2.333 0.838 2.333-0.133zm55.5-0.2c-0.8083-1.3078 2.0981-1.2855 4.5657 0.03518 2.8725 1.5373 2.4577-0.64609-0.48954-2.5772-2.2162-1.4521-2.6901-1.4504-5.5327 0.01953-3.29 1.704-3.25 3.522 0.08 3.522 1.1 0 1.7219-0.45 1.382-1zm-49.2-10.996c-0.38-4.551-0.23-7.004 0.45-7.004 1.3762 0 1.8631 1.5906 2.134 6.9702 0.35 6.901 5.12 5.386 5.12-1.625 0-1.84 0.45-3.345 1-3.345s1 1.35 1 3c0 3.7604 1.9754 3.9992 2.0677 0.25 0.0665-2.7005 0.0872-2.7095 1.1528-0.5 1.3148 2.7261 1.0193 2.7173 8.0641 0.24125 6.5923-2.317 11.534-2.095 26.882 1.2072 13.622 2.931 16.241 0.82891 9.8302-7.8889-10.01-13.606-40.08-14.19-59.478-1.155-2.738 1.84-4.918 3.795-4.844 4.345 0.07383 0.55 0.43922 4.2546 0.81197 8.2324l0.67773 7.2324 2.8585-1.4782c2.8303-1.4636 2.8527-1.5472 2.2713-8.4824zm-3.753 5.746c-1.2311-3.9484-1.1863-10.805 0.07747-11.854 0.75628-0.62766 1.3896-0.74859 1.4075-0.26875 0.01783 0.47984 0.16198 3.6849 0.32034 7.1224 0.25638 5.5652-0.75534 8.3673-1.8053 5zm8.1192-3.4167c-1.07-1.062-0.77-8.333 0.33-8.333 0.55 0 1 2.025 1 4.5 0 4.5784-0.15181 5.0149-1.3333 3.8333zm-12.67-17.833c0-3.575-0.3375-6.5003-0.75-6.5006-0.4125-0.000349-0.75 2.9235-0.75 6.4974s0.3375 6.4992 0.75 6.5006c0.412 0.002 0.75-2.922 0.75-6.497zm4.1951-3c0.182-3.576 0.709-5.798 1.305-5.5 0.55 0.275 0.84613 2.6375 0.65808 5.25-0.40553 5.6336-1.0005 5.5039 7.4987 1.6344 7.046-3.2079 33.376-4.8713 40.093-2.5329 3.8959 1.3563 2.426-0.67904-4.226-5.8515-11.69-9.092-43.286-8.427-46.055 0.969-0.822 2.79-1.189 13.654-0.436 12.897 0.474-0.476 0.998-3.566 1.166-6.866zm3.805-0.941c0-1.407 0.45-2.559 1-2.559s1 0.87344 1 1.941c0 1.0675-0.45 2.2191-1 2.559-0.56716 0.35052-1-0.48962-1-1.941zm119.74-5.809c7.9894-4.562 15.458-12.297 9.7637-10.112-2.0509 0.78701-2.0309-3.9529 0.0239-5.6582 1.6717-1.3874-5.1407-6.157-14.524-10.169-2.475-1.0582-6.1956-3.0905-8.2681-4.5162-4.8552-3.34-4.9598-3.1426-3.3259 6.2734 0.75699 4.3623 1.6917 11.152 2.0772 15.087 0.97893 9.9949 5.2844 10.887 16.787 3.4795 4.8106-3.0981 5.9468-2.2224 1.2589 0.97028-1.9336 1.3168-3.5186 2.6817-3.5224 3.033-0.004 0.35129-1.5943 0.93653-3.5346 1.3005-1.9403 0.364-3.2637 1.0891-2.941 1.6113 0.86334 1.3969 1.8392 1.1924 6.205-1.3005z"/>
</svg>
